
<svg xmlns="http://www.w3.org/2000/svg" version="1.1" xmlns:xlink="http://www.w3.org/1999/xlink" preserveAspectRatio="none" x="0px" y="0px" width="115px" height="30px" viewBox="0 0 115 30">
<defs>
<g id="Layer1_0_MEMBER_0_FILL">
<path fill="#FFFFFF" stroke="none" d="
M 244.7 39.8
L 244.7 38.1 237.3 38.1 237.3 39.8 244.7 39.8 Z"/>
</g>

<g id="Layer1_0_MEMBER_1_FILL">
<path fill="#FFFFFF" stroke="none" d="
M 131.75 28.4
Q 131.75 27.3 132.3 26.9 132.8 26.55 134.5 26.45
L 134.5 25.6
Q 132.65 25.75 131.85 25.75 130.95 25.75 128.7 25.6
L 122.45 42.35 116.25 25.6
Q 114.4 25.75 113.1 25.75 112.35 25.75 110.4 25.6
L 110.4 26.45
Q 112.1 26.55 112.65 26.9 113.15 27.3 113.15 28.45
L 112.45 44.9
Q 112.4 46.2 111.95 46.6 111.45 47 109.75 47.1
L 109.75 47.9
Q 111.45 47.75 113.05 47.75 114.65 47.75 116.35 47.9
L 116.35 47.1
Q 114.6 47 114.1 46.65 113.6 46.3 113.6 45.2
L 114.25 27.7 121.35 47.15 121.85 47.15 129 27.75 129.3 45.05
Q 129.3 46.2 128.75 46.6 128.25 47 126.55 47.1
L 126.55 47.9
Q 129.1 47.65 130.7 47.65 132.25 47.65 134.8 47.9
L 134.8 47.1
Q 133.05 47 132.6 46.6 132.15 46.25 132.1 44.9
L 131.75 28.4 Z"/>
</g>

<g id="Layer1_0_MEMBER_2_FILL">
<path fill="#FFFFFF" stroke="none" d="
M 136.4 40.1
Q 136.4 43.9 138.2 46.05 139.95 48.15 143.15 48.15 145.6 48.15 147.1 46.75 148.6 45.3 148.95 42.75
L 147.65 42.75
Q 147.05 47.05 143.4 47.05 141.15 47.05 140.1 45.25 139.1 43.5 139.05 39.6
L 148.9 39.6
Q 148.85 35.75 147.3 33.75 145.75 31.75 142.85 31.75 139.9 31.75 138.15 34 136.4 36.25 136.4 40.1
M 142.85 32.65
Q 145.95 32.65 146.25 38.4
L 139.1 38.4
Q 139.65 32.65 142.85 32.65 Z"/>
</g>

<g id="Layer1_0_MEMBER_3_FILL">
<path fill="#FFFFFF" stroke="none" d="
M 152.9 33.3
Q 153.2 33.55 153.25 34.6
L 153.25 45.45
Q 153.25 46.5 152.8 46.85 152.4 47.2 150.85 47.25
L 150.85 47.9
Q 153.3 47.7 154.55 47.7 155.8 47.7 158.25 47.9
L 158.25 47.25
Q 156.75 47.2 156.3 46.85 155.9 46.5 155.9 45.45
L 155.9 38.55
Q 155.9 36.1 156.65 34.6 157.4 33.15 158.7 33.15 159.7 33.15 159.7 33.95
L 159.7 34.25 159.65 34.6 159.55 34.9
Q 159.55 35.4 159.95 35.75 160.35 36.05 160.95 36.05 161.55 36.05 161.95 35.6 162.3 35.15 162.3 34.45 162.3 33.25 161.5 32.5 160.7 31.75 159.45 31.75 156.75 31.75 155.55 34.75
L 155.55 34.4
Q 155.5 33.05 155.25 31.65 153.4 32.2 150.9 32.4
L 150.9 33 151.3 33
Q 152.6 33.05 152.9 33.3 Z"/>
</g>

<g id="Layer1_0_MEMBER_4_FILL">
<path fill="#FFFFFF" stroke="none" d="
M 175 31.45
L 174.4 31.45 173.55 33.15
Q 172 31.75 170.15 31.75 167.25 31.75 165.4 34.05 163.6 36.4 163.6 40.1 163.6 43.7 165.4 45.95 167.15 48.15 170.05 48.15 174.65 48.15 175.35 42.7
L 174 42.7
Q 173.4 47.05 170.3 47.05 166.5 47.05 166.5 40.1 166.5 36.55 167.55 34.6 168.55 32.65 170.4 32.65 173.35 32.65 174.25 36.95
L 175 36.95 175 31.45 Z"/>
</g>

<g id="Layer1_0_MEMBER_5_FILL">
<path fill="#FFFFFF" stroke="none" d="
M 177.7 40.1
Q 177.7 43.9 179.5 46.05 181.25 48.15 184.45 48.15 186.9 48.15 188.4 46.75 189.95 45.3 190.25 42.75
L 188.95 42.75
Q 188.35 47.05 184.75 47.05 182.5 47.05 181.45 45.25 180.4 43.5 180.35 39.6
L 190.25 39.6
Q 190.1 31.75 184.15 31.75 181.2 31.75 179.45 34 177.7 36.25 177.7 40.1
M 184.15 32.65
Q 187.3 32.65 187.6 38.4
L 180.4 38.4
Q 180.95 32.65 184.15 32.65 Z"/>
</g>

<g id="Layer1_0_MEMBER_6_FILL">
<path fill="#FFFFFF" stroke="none" d="
M 202.95 28.75
L 202.95 34.55
Q 202.05 33.05 201.2 32.5 200.35 31.95 199 31.95 196.35 31.95 194.65 34.25 192.95 36.5 192.95 40.1 192.95 43.65 194.7 45.95 196.4 48.2 199.1 48.2 201.9 48.2 203.2 45.5 203.4 46.95 203.65 48.15 205.5 47.55 207.55 47.35
L 208.05 47.25 208.05 46.7
Q 206.35 46.65 206 46.35 205.6 46 205.6 44.45
L 205.6 25.35
Q 203.35 25.95 200.6 26.25
L 200.6 26.8
Q 202.15 26.8 202.55 27.15 202.95 27.45 202.95 28.75
M 195.75 40.05
Q 195.75 32.9 199.3 32.9 203 32.9 203 40.3 203 47.25 199.4 47.25 195.75 47.25 195.75 40.05 Z"/>
</g>

<g id="Layer1_0_MEMBER_7_FILL">
<path fill="#FFFFFF" stroke="none" d="
M 220.2 33.75
Q 218.65 31.75 215.75 31.75 212.8 31.75 211.05 34 209.3 36.25 209.3 40.1 209.3 43.9 211.1 46.05 212.85 48.15 216.05 48.15 218.5 48.15 220 46.75 221.5 45.3 221.85 42.75
L 220.5 42.75
Q 219.9 47.05 216.3 47.05 214.05 47.05 213 45.25 212 43.5 211.95 39.6
L 221.8 39.6
Q 221.75 35.75 220.2 33.75
M 219.15 38.4
L 212 38.4
Q 212.55 32.65 215.7 32.65 218.85 32.65 219.15 38.4 Z"/>
</g>

<g id="Layer1_0_MEMBER_8_FILL">
<path fill="#FFFFFF" stroke="none" d="
M 233.6 36.7
L 234.35 36.7 234.35 31.55 233.75 31.55 233.2 32.95
Q 231.7 31.85 229.8 31.85 227.6 31.85 226.25 33.1 224.85 34.3 224.85 36.25 224.85 37.7 225.55 38.55 226.2 39.4 228.05 40.25
L 230.8 41.5
Q 233.05 42.5 233.05 44.1 233.05 45.4 232.1 46.25 231.1 47.1 229.65 47.1 226.25 47.1 225.35 42.65
L 224.6 42.65 224.6 48.2 225.2 48.2 226 46.7
Q 227.75 48.1 230 48.1 232.3 48.1 233.8 46.75 235.3 45.4 235.3 43.35 235.3 41.85 234.55 40.95 233.8 40.05 231.9 39.2
L 230.5 38.65
Q 228.25 37.65 227.65 37.1 227 36.55 227 35.55 227 34.4 227.9 33.6 228.8 32.8 230.1 32.8 233.15 32.8 233.6 36.7 Z"/>
</g>

<g id="Layer1_0_MEMBER_9_FILL">
<path fill="#FFFFFF" stroke="none" d="
M 256.7 36
Q 260.35 34.65 260.35 31.1 260.35 28.35 258.35 26.9 256.8 25.7 253.8 25.7
L 245.1 25.7 245.1 26.55
Q 246.9 26.65 247.35 27 247.8 27.4 247.8 28.7
L 247.8 44.8
Q 247.8 46.1 247.35 46.5 246.9 46.85 245.1 47
L 245.1 47.8 253.45 47.8
Q 256.75 47.8 258.65 46.65 259.9 45.85 260.65 44.45 261.4 43 261.4 41.45 261.4 38.7 259.35 37.05 258.35 36.35 256.7 36
M 257.4 31.2
Q 257.4 33.4 256.3 34.65 255.4 35.75 252.85 35.75
L 250.6 35.75 250.6 26.75 253.4 26.75
Q 255.5 26.75 256.45 27.8 257.4 28.85 257.4 31.2
M 250.95 46.45
Q 250.6 46.15 250.6 45.05
L 250.6 36.75 253.75 36.75
Q 256.2 36.75 257.25 37.85 258.45 39.05 258.45 41.6 258.45 44.1 257.25 45.4 256.05 46.75 253.85 46.75
L 252.65 46.75
Q 251.35 46.75 250.95 46.45 Z"/>
</g>

<g id="Layer1_0_MEMBER_10_FILL">
<path fill="#FFFFFF" stroke="none" d="
M 270.55 31.75
Q 267.55 31.75 265.85 34 264.1 36.25 264.1 40.1 264.1 43.95 265.85 46.05 267.65 48.15 270.85 48.15 273.3 48.15 274.8 46.75 276.3 45.3 276.65 42.75
L 275.3 42.75
Q 274.7 47.05 271.1 47.05 268.85 47.05 267.8 45.25 266.75 43.45 266.75 39.6
L 276.6 39.6
Q 276.55 35.75 275 33.75 273.45 31.75 270.55 31.75
M 273.95 38.4
L 266.8 38.4
Q 267.25 32.65 270.5 32.65 273.65 32.65 273.95 38.4 Z"/>
</g>

<g id="Layer1_0_MEMBER_11_FILL">
<path fill="#FFFFFF" stroke="none" d="
M 286.75 33.35
Q 288.35 33.35 289.05 34.3 289.75 35.25 289.75 37.4
L 289.75 45.5
Q 289.75 46.5 289.3 46.85 288.85 47.2 287.5 47.25
L 287.5 47.9
Q 289.85 47.7 291.15 47.7 292.4 47.7 294.75 47.9
L 294.75 47.25
Q 293.25 47.2 292.8 46.85 292.4 46.5 292.4 45.45
L 292.4 37.5
Q 292.4 35.85 291.9 34.5 291.4 33.3 290.2 32.6 289 31.85 287.5 31.85 284.8 31.85 283.05 34.45 283 32.65 282.7 31.55 281 32.2 278.35 32.55
L 278.35 33.15 278.8 33.15
Q 280.05 33.15 280.35 33.4 280.65 33.7 280.65 34.7
L 280.65 45.45
Q 280.65 46.5 280.25 46.85 279.8 47.2 278.3 47.25
L 278.3 47.9
Q 280.65 47.7 281.9 47.7 283.2 47.7 285.45 47.9
L 285.45 47.25
Q 284.15 47.2 283.75 46.85 283.3 46.5 283.3 45.5
L 283.3 37.5
Q 283.3 33.35 286.75 33.35 Z"/>
</g>

<g id="Layer1_0_MEMBER_12_FILL">
<path fill="#FFFFFF" stroke="none" d="
M 298.65 33.65
Q 299.35 33.05 300.95 33.05
L 305 33.05 296.05 47.8 307.4 47.8 308.3 43.05 307.6 43.05
Q 306.85 45.3 305.95 46.15 305.1 46.95 303.4 46.95
L 299.55 46.95 308.55 32.15 297.15 32.15 296.4 36.45 297.05 36.45
Q 297.95 34.25 298.65 33.65 Z"/>
</g>

<g id="Layer1_1_FILL">
<path fill="#FFFFFF" stroke="none" d="
M 30 24.45
Q 29.7 23.9 29.65 23
L 33.55 23
Q 33.55 22.85 33.55 22.8 33.55 21.6 33.05 20.85 32.4 19.85 31.25 19.85 30.3 19.85 29.65 20.45 28.8 21.3 28.8 22.9 28.8 24.4 29.55 25.15 30.25 25.85 31.3 25.85 32.9 25.85 33.4 24.35
L 32.6 24.25
Q 32.45 24.55 32.3 24.7 31.95 25.1 31.3 25.1 30.45 25.1 30 24.45
M 29.7 22.35
Q 29.75 21.7 30 21.3 30.45 20.55 31.2 20.55 32 20.55 32.4 21.3 32.6 21.7 32.65 22.35
L 29.7 22.35
M 23.95 17.65
L 23.15 17.65 23.15 25.7 23.95 25.7 23.95 22.6
Q 23.95 21.75 24.25 21.3 24.65 20.6 25.45 20.6 26.15 20.6 26.45 21.2 26.6 21.5 26.6 22.5
L 26.6 25.7 27.45 25.7 27.45 22.45
Q 27.45 21.45 27.35 21.1 27.2 20.45 26.7 20.15 26.25 19.85 25.6 19.85 24.6 19.85 23.95 20.7
L 23.95 17.65
M 22 18.5
L 22 17.7 16.95 17.7 16.95 18.5 19.05 18.5 19.05 25.7 19.95 25.7 19.95 18.5 22 18.5
M 55.5 20
L 54.6 20 54.6 20.7 55.45 20.7 55.4 23.55
Q 55.4 24.3 55.4 24.5 55.4 25.05 55.55 25.3 55.85 25.8 56.7 25.8 57.15 25.8 57.7 25.65
L 57.7 24.9
Q 57.3 25.1 56.85 25.1 56.55 25.1 56.35 24.9 56.25 24.75 56.25 24.2 56.25 24.1 56.25 23.6
L 56.3 20.7 57.65 20.7 57.65 20 56.3 20 56.35 18.4 55.5 18.4 55.5 20
M 50.35 20.25
Q 49.8 20.7 49.8 21.45 49.8 22.05 50.1 22.4 50.45 22.75 51.3 23 52.35 23.35 52.55 23.5 52.95 23.7 52.95 24.15 52.95 24.65 52.55 24.9 52.25 25.15 51.7 25.15 50.5 25.15 50.4 23.95
L 49.6 23.95
Q 49.6 24.9 50.2 25.4 50.75 25.85 51.75 25.85 52.75 25.85 53.3 25.35 53.8 24.85 53.8 24.1 53.8 23.2 53.1 22.8 52.8 22.6 51.95 22.35 51.15 22.15 50.9 21.95 50.65 21.75 50.65 21.4 50.65 21.05 50.9 20.8 51.25 20.55 51.75 20.55 52.3 20.55 52.6 20.85 52.85 21.1 52.9 21.6
L 53.75 21.6
Q 53.7 20.55 52.9 20.15 52.4 19.85 51.75 19.85 50.95 19.85 50.35 20.25
M 44.6 20.45
Q 43.75 21.3 43.75 22.9 43.75 24.4 44.5 25.15 45.2 25.85 46.25 25.85 47.85 25.85 48.35 24.35
L 47.55 24.25
Q 47.4 24.55 47.25 24.7 46.9 25.1 46.25 25.1 45.4 25.1 44.95 24.45 44.65 23.9 44.6 23
L 48.5 23
Q 48.5 22.85 48.5 22.8 48.5 21.6 48 20.85 47.35 19.85 46.2 19.85 45.25 19.85 44.6 20.45
M 44.65 22.35
Q 44.7 21.7 44.95 21.3 45.4 20.55 46.15 20.55 46.95 20.55 47.35 21.3 47.55 21.7 47.6 22.35
L 44.65 22.35
M 42.65 22.85
Q 42.65 21.3 41.85 20.45 41.3 19.85 40.45 19.85 39.45 19.85 38.8 20.85
L 38.8 17.65 38 17.65 38 24.1
Q 38 25.35 37.9 25.7
L 38.7 25.7
Q 38.8 25.35 38.8 25.05 38.8 25 38.8 24.9 39 25.3 39.25 25.5 39.7 25.85 40.35 25.85 41.15 25.85 41.75 25.3 42.65 24.45 42.65 22.85
M 41.8 22.85
Q 41.8 24.05 41.2 24.7 40.85 25.1 40.3 25.1 39.7 25.1 39.3 24.6 38.8 23.95 38.8 22.9 38.8 21.8 39.3 21.15 39.7 20.6 40.35 20.6 40.95 20.6 41.3 21.05 41.8 21.7 41.8 22.85
M 74.8 20
Q 74.85 20.3 74.9 20.55 74.9 20.8 74.9 21.95
L 74.9 25.7 75.75 25.7 75.75 22.55
Q 75.75 21.7 76.05 21.3 76.45 20.6 77.25 20.6 78 20.6 78.25 21.15 78.4 21.5 78.4 22.5
L 78.4 25.7 79.25 25.7 79.25 22.45
Q 79.25 21.65 79.2 21.35 79.15 20.65 78.7 20.25 78.2 19.85 77.45 19.85 76.3 19.85 75.7 20.85
L 75.7 20.8
Q 75.7 20.3 75.6 20
L 74.8 20
M 67.9 20
Q 67.95 20.4 68 20.8 68 21 68 21.95
L 68 25.7 68.85 25.7 68.85 23.15
Q 68.85 22.05 69.05 21.5 69.45 20.65 70.15 20.65 70.45 20.65 70.95 20.85
L 70.95 20.05
Q 70.55 19.85 70.25 19.85 69.35 19.85 68.8 21.2 68.8 20.95 68.8 20.85 68.8 20.45 68.7 20
L 67.9 20
M 65.75 20.55
Q 65.05 19.85 64.1 19.85 63.05 19.85 62.4 20.55 61.6 21.4 61.6 22.85 61.6 24.3 62.4 25.15 63.05 25.85 64.05 25.85 65.1 25.85 65.75 25.15 66.55 24.3 66.55 22.85 66.55 21.4 65.75 20.55
M 64.05 20.6
Q 64.75 20.6 65.2 21.15 65.7 21.8 65.7 22.85 65.7 23.9 65.2 24.55 64.75 25.1 64.05 25.1 63.4 25.1 62.95 24.55 62.45 23.9 62.45 22.85 62.45 21.8 62.95 21.15 63.4 20.6 64.05 20.6
M 97.65 20
L 96.75 20 96.75 25.7 97.65 25.7 97.65 20
M 93.1 20.6
Q 93.8 20.6 94.1 21.2 94.25 21.5 94.25 22.5
L 94.25 25.7 95.1 25.7 95.1 22.45
Q 95.1 21.45 95 21.1 94.85 20.45 94.35 20.15 93.9 19.85 93.25 19.85 92.25 19.85 91.6 20.7
L 91.6 17.65 90.8 17.65 90.8 25.7 91.6 25.7 91.6 22.6
Q 91.6 21.75 91.9 21.3 92.3 20.6 93.1 20.6
M 97.85 18.2
Q 97.85 17.9 97.65 17.75 97.45 17.6 97.25 17.6 97 17.6 96.8 17.75 96.6 17.95 96.6 18.2 96.6 18.5 96.8 18.65 96.95 18.8 97.2 18.8 97.5 18.8 97.7 18.6 97.85 18.45 97.85 18.2
M 83.15 19.85
Q 82.1 19.85 81.45 20.55 80.65 21.4 80.65 22.85 80.65 24.3 81.45 25.15 82.1 25.85 83.1 25.85 84.15 25.85 84.8 25.15 85.6 24.3 85.6 22.85 85.6 21.4 84.8 20.55 84.1 19.85 83.15 19.85
M 82 21.15
Q 82.45 20.6 83.1 20.6 83.8 20.6 84.25 21.15 84.75 21.8 84.75 22.85 84.75 23.9 84.25 24.55 83.8 25.1 83.1 25.1 82.45 25.1 82 24.55 81.5 23.9 81.5 22.85 81.5 21.8 82 21.15
M 88.2 18.4
L 87.35 18.4 87.35 20 86.45 20 86.45 20.7 87.3 20.7 87.25 23.55
Q 87.25 24.3 87.25 24.5 87.25 25.05 87.4 25.3 87.7 25.8 88.55 25.8 89 25.8 89.55 25.65
L 89.55 24.9
Q 89.15 25.1 88.7 25.1 88.4 25.1 88.2 24.9 88.1 24.75 88.1 24.2 88.1 24.1 88.1 23.6
L 88.15 20.7 89.5 20.7 89.5 20 88.15 20 88.2 18.4
M 111.95 24.45
Q 111.65 24.45 111.45 24.65 111.25 24.85 111.25 25.15 111.25 25.4 111.45 25.6 111.65 25.8 111.95 25.8 112.2 25.8 112.4 25.6 112.6 25.4 112.6 25.15 112.6 24.85 112.4 24.65 112.2 24.45 111.95 24.45
M 103.75 22.45
Q 103.75 21.65 103.7 21.35 103.65 20.65 103.2 20.25 102.7 19.85 101.95 19.85 100.8 19.85 100.2 20.85
L 100.2 20.8
Q 100.2 20.3 100.1 20
L 99.3 20
Q 99.35 20.3 99.4 20.55 99.4 20.8 99.4 21.95
L 99.4 25.7 100.25 25.7 100.25 22.55
Q 100.25 21.7 100.55 21.3 100.95 20.6 101.75 20.6 102.5 20.6 102.75 21.15 102.9 21.5 102.9 22.5
L 102.9 25.7 103.75 25.7 103.75 22.45
M 106.1 20.35
Q 105.45 20.9 105.45 21.85 105.45 23.05 106.55 23.5 106.2 23.65 105.95 23.8 105.55 24.05 105.55 24.45 105.55 24.85 106.15 25.1 105.7 25.25 105.45 25.45 104.95 25.85 104.95 26.5 104.95 27.2 105.55 27.65 106.3 28.15 107.5 28.15 108.65 28.15 109.3 27.75 110.1 27.25 110.1 26.4 110.1 25.15 108.7 24.85 108.4 24.8 107.55 24.7 106.7 24.6 106.55 24.55 106.4 24.45 106.4 24.3 106.4 24.1 106.75 23.95 106.95 23.85 107.6 23.7 108.55 23.5 108.9 23.2 109.45 22.8 109.45 21.9 109.45 21.05 108.95 20.6
L 110.15 20.65 110.15 20 108.4 20.05
Q 107.95 19.95 107.5 19.95 106.65 19.95 106.1 20.35
M 107.45 20.6
Q 108.05 20.6 108.35 21 108.65 21.35 108.65 21.85 108.65 22.4 108.35 22.7 108 23.05 107.45 23.05 106.9 23.05 106.55 22.7 106.25 22.4 106.25 21.85 106.25 21.3 106.6 20.9 106.95 20.6 107.45 20.6
M 107.45 25.45
Q 109.25 25.45 109.25 26.45 109.25 26.85 108.95 27.1 108.5 27.45 107.55 27.45 106.75 27.45 106.2 27.15 105.7 26.9 105.7 26.45 105.7 25.95 106.25 25.7 106.7 25.45 107.45 25.45 Z"/>
</g>
</defs>

<g transform="matrix( 0.55999755859375, 0, 0, 0.55999755859375, -60.35,-13.55) ">
<use xlink:href="#Layer1_0_MEMBER_0_FILL"/>
</g>

<g transform="matrix( 0.55999755859375, 0, 0, 0.55999755859375, -60.35,-13.55) ">
<use xlink:href="#Layer1_0_MEMBER_1_FILL"/>
</g>

<g transform="matrix( 0.55999755859375, 0, 0, 0.55999755859375, -60.35,-13.55) ">
<use xlink:href="#Layer1_0_MEMBER_2_FILL"/>
</g>

<g transform="matrix( 0.55999755859375, 0, 0, 0.55999755859375, -60.35,-13.55) ">
<use xlink:href="#Layer1_0_MEMBER_3_FILL"/>
</g>

<g transform="matrix( 0.55999755859375, 0, 0, 0.55999755859375, -60.35,-13.55) ">
<use xlink:href="#Layer1_0_MEMBER_4_FILL"/>
</g>

<g transform="matrix( 0.55999755859375, 0, 0, 0.55999755859375, -60.35,-13.55) ">
<use xlink:href="#Layer1_0_MEMBER_5_FILL"/>
</g>

<g transform="matrix( 0.55999755859375, 0, 0, 0.55999755859375, -60.35,-13.55) ">
<use xlink:href="#Layer1_0_MEMBER_6_FILL"/>
</g>

<g transform="matrix( 0.55999755859375, 0, 0, 0.55999755859375, -60.35,-13.55) ">
<use xlink:href="#Layer1_0_MEMBER_7_FILL"/>
</g>

<g transform="matrix( 0.55999755859375, 0, 0, 0.55999755859375, -60.35,-13.55) ">
<use xlink:href="#Layer1_0_MEMBER_8_FILL"/>
</g>

<g transform="matrix( 0.55999755859375, 0, 0, 0.55999755859375, -60.35,-13.55) ">
<use xlink:href="#Layer1_0_MEMBER_9_FILL"/>
</g>

<g transform="matrix( 0.55999755859375, 0, 0, 0.55999755859375, -60.35,-13.55) ">
<use xlink:href="#Layer1_0_MEMBER_10_FILL"/>
</g>

<g transform="matrix( 0.55999755859375, 0, 0, 0.55999755859375, -60.35,-13.55) ">
<use xlink:href="#Layer1_0_MEMBER_11_FILL"/>
</g>

<g transform="matrix( 0.55999755859375, 0, 0, 0.55999755859375, -60.35,-13.55) ">
<use xlink:href="#Layer1_0_MEMBER_12_FILL"/>
</g>

<g transform="matrix( 1, 0, 0, 1, 0,0) ">
<use xlink:href="#Layer1_1_FILL"/>
</g>
</svg>
