<?xml version="1.0" encoding="UTF-8" standalone="no"?>
<!-- Generator: Adobe Illustrator 14.0.0, SVG Export Plug-In . SVG Version: 6.00 Build 43363)  -->

<svg
   xmlns:dc="http://purl.org/dc/elements/1.1/"
   xmlns:cc="http://creativecommons.org/ns#"
   xmlns:rdf="http://www.w3.org/1999/02/22-rdf-syntax-ns#"
   xmlns:svg="http://www.w3.org/2000/svg"
   xmlns="http://www.w3.org/2000/svg"
   xmlns:sodipodi="http://sodipodi.sourceforge.net/DTD/sodipodi-0.dtd"
   xmlns:inkscape="http://www.inkscape.org/namespaces/inkscape"
   version="1.1"
   id="Ebene_1"
   x="0px"
   y="0px"
   width="560px"
   height="500px"
   viewBox="0 0 560 500"
   enable-background="new 0 0 560 500"
   xml:space="preserve"
   sodipodi:docname="logo-white.svg"
   inkscape:version="0.92.4 5da689c313, 2019-01-14"><metadata
   id="metadata10"><rdf:RDF><cc:Work
       rdf:about=""><dc:format>image/svg+xml</dc:format><dc:type
         rdf:resource="http://purl.org/dc/dcmitype/StillImage" /></cc:Work></rdf:RDF></metadata><defs
   id="defs8" /><sodipodi:namedview
   pagecolor="#ffffff"
   bordercolor="#666666"
   borderopacity="1"
   objecttolerance="10"
   gridtolerance="10"
   guidetolerance="10"
   inkscape:pageopacity="0"
   inkscape:pageshadow="2"
   inkscape:window-width="1718"
   inkscape:window-height="781"
   id="namedview6"
   showgrid="false"
   inkscape:zoom="0.472"
   inkscape:cx="280"
   inkscape:cy="250"
   inkscape:window-x="0"
   inkscape:window-y="27"
   inkscape:window-maximized="0"
   inkscape:current-layer="Ebene_1" />
<g
   id="surface1"
   style="fill:#ffffff">
	<path
   fill="#010202"
   d="M181.922,437.011l-2.031,52.791v0.917c0,4.469,1.328,5.392,8.448,5.911v2.434   c-5.198-0.411-7.229-0.512-10.078-0.512c-2.838,0-4.88,0.101-10.182,0.512v-2.434c7.12-0.521,8.141-1.328,8.344-6.828l2.146-49.941   v-0.62c0-4.688-1.427-5.688-8.448-6.1v-2.542c3.958,0.312,5.49,0.412,8.339,0.412c3.76,0,5.802-0.108,9.672-0.511l18.922,51.479   l19.229-51.479c4.578,0.401,6.719,0.511,9.771,0.511c2.547,0,4.177-0.108,8.047-0.412v2.554c-6.917,0.411-8.448,1.416-8.448,6.01   v0.709l1.12,49.942c0.109,5.5,1.021,6.308,8.338,6.827v2.428c-6.422-0.619-8.849-0.817-12.708-0.817s-6.312,0.208-12.713,0.817   v-2.428c6.912-0.41,8.453-1.53,8.453-6.312v-0.526l-0.922-52.703l-16.787,45.37l-1.224,3.359l-1.417,3.761l-1.323,3.869   l-1.12,3.359h-1.547l-1.12-3.25l-1.432-3.958l-1.422-3.958l-1.219-3.562L181.922,437.011z M280.292,469.87   c-0.609-11.99-3.963-17.698-10.583-17.698c-6.511,0-10.38,6-11.396,17.698H280.292z M284.447,483.198h4.094   c-1.332,10.483-7.844,16.682-17.812,16.682c-13.12,0-20.76-9.141-20.76-24.812c0-15.666,7.641-25.536,19.844-25.536   c12,0,18.416,8.349,18.609,24.011H258.11c0.099,15.859,4.172,22.989,13.432,22.989C278.771,496.521,283.25,491.859,284.447,483.198   z M295.818,453.302c5.291,0.101,5.791,0.609,5.899,4.97v33.271c0,4.369-1.13,5.197-7.327,5.5v2.036   c5.608-0.516,7.738-0.62,11.41-0.62c3.547,0,5.688,0.104,11.287,0.62v-2.036c-6.209-0.303-7.229-1.131-7.229-5.5v-21.261   c0-10.083,3.358-16.489,8.641-16.489c1.849,0,3.062,1.036,3.062,2.447v0.912l-0.214,1.03c-0.099,0.406-0.196,0.808-0.196,1.017   c0,2.03,1.838,3.463,4.166,3.463c2.553,0,4.271-1.933,4.271-4.892c0-4.868-3.761-8.229-8.85-8.229   c-5.281,0-9.661,3.359-11.892,9.146v-1.119c-0.208-3.048-0.411-4.678-0.916-8.438c-4.172,1.209-7.631,1.839-13.433,2.328v1.844   L295.818,453.302L295.818,453.302z M366.781,448.599l-2.739,5.193c-3.25-3.141-6.011-4.261-10.381-4.261   c-12,0-20.15,10.37-20.15,25.536c0,14.854,8.052,24.812,19.838,24.812c9.151,0,14.953-5.891,16.271-16.781h-4.172   c-1.209,8.953-4.979,13.434-11.287,13.434c-7.833,0-11.802-7.219-11.802-21.464c0-14.547,4.469-22.786,12.108-22.786   c6.203,0,9.964,4.271,11.802,13.12h2.24V448.62h-1.729V448.599z M407.188,469.87c-0.619-11.99-3.957-17.698-10.577-17.698   c-6.512,0-10.38,6-11.411,17.698H407.188z M411.37,483.198h4.052c-1.312,10.483-7.812,16.682-17.792,16.682   c-13.119,0-20.75-9.141-20.75-24.812c0-15.666,7.631-25.536,19.828-25.536c12,0,18.422,8.349,18.62,24.011h-30.317   c0.109,15.859,4.178,22.989,13.438,22.989C405.661,496.521,410.13,491.859,411.37,483.198z M454.578,475.672   c0-14.953-3.85-22.691-11.391-22.691c-7.309,0-10.875,7.229-10.875,21.979c0,14.531,3.869,22.162,11.188,22.162   C450.817,497.13,454.578,489.812,454.578,475.672z M470.052,495.411v1.719l-1.521,0.209c-6.012,0.703-7.729,1.119-11.901,2.433   c-1.021-3.869-1.021-4.271-1.422-8.131c-2.849,5.698-6.817,8.34-12.619,8.34c-11.089,0-18.817-10.271-18.817-24.917   c0-14.661,7.641-24.923,18.521-24.923c5.5,0,8.458,1.84,12.208,7.928v-17.786c0-5.292-0.812-6-7.229-6v-1.739   c5.697-0.62,10.28-1.433,15.369-2.781v58.729C462.63,494.698,463.239,495.208,470.052,495.411z M504.229,469.87   c-0.619-11.99-3.959-17.698-10.6-17.698c-6.5,0-10.369,6-11.391,17.698H504.229z M508.391,483.198h4.067   c-1.317,10.483-7.828,16.682-17.786,16.682c-13.13,0-20.761-9.141-20.761-24.812c0-15.666,7.631-25.536,19.828-25.536   c12.011,0,18.422,8.349,18.608,24.011h-30.307c0.109,15.859,4.177,22.989,13.427,22.989   C502.698,496.521,507.183,491.859,508.391,483.198z M522.817,499.979l2.442-4.567c3.869,3.058,7.521,4.276,12.208,4.276   c9.573,0,16.38-6.109,16.38-14.656c0-6.012-2.729-9.262-10.479-12.62l-4.261-1.833c-9.271-4.067-10.792-5.391-10.792-9.458   c0-4.781,4.172-8.448,9.572-8.448c6.411,0,9.762,3.87,10.661,12h2.351v-15.771h-1.84l-1.733,4.177   c-3.458-2.339-6.417-3.261-10.37-3.261c-8.958,0-15.26,5.5-15.26,13.542c0,5.91,2.344,8.761,9.781,12.208l4.682,2.141l3.87,1.729   c4.979,2.244,6.905,4.582,6.905,8.041c0,5.203-4.469,9.161-10.479,9.161c-7.119,0-11.391-4.469-13.219-13.738L521.011,483v17h1.817   v-0.021H522.817z M395.458,160.948c4.084-2.385,11.334,0.021,12.975,4.583c5.136,14.328,6.5,48.719,3.817,66.167   c-1.067,7.052-10.672,10.094-10.349,2.641c0.63-14.698-0.412-43.13-8.132-69.307C393.219,163.188,394.099,161.74,395.458,160.948z    M514.891,159.021c6.479,2.161,6.928,14.948,0.042,13.25c-2.911-0.708-5.922-1.24-9.562-1.24c-13.938,0-25.162,7.781-25.162,24.167   c0,37.552,75.109,83.89,75.109,137.671c0,41.74-44.267,81.459-75.317,95.079c-4.391,1.922-6.411-2.709-2.567-4.761   c29.729-15.906,64.588-53.99,64.588-89.5c0-48.679-76.738-95.417-76.738-138.49c0-25.078,18.839-37.458,39.286-37.458   C508.958,157.74,512.521,158.229,514.891,159.021z M154.162,2.812c13.469,4.188,0.719,14.5-10.453,13.026   c-2.229-0.297-7.719-0.729-10.849-0.729c-31.74,0-67.208,25.5-67.208,79.052c0,30.01,10.167,68.828,23.349,109.62   c51.588-43.463,98.49-74.963,128.38-98.359c3.75-2.932,8.542-3.333,13.302-1.031c3.219,1.547,6.787,5.51,2.886,8.979   c-58.276,51.812-82.287,202.358-60.578,238.708c1.771,2.953,4.151,3.75,8.292,0.203c18.927-16.219,42.177-84.469,52.057-109.87   c2.24-5.75,5.094-10.193,9.891-10.193c4.729,0,6.812,4.463,7.693,12.823c2.51,24.167-4.51,138.089,34.146,138.089   c6.432,0,13.812-3.271,21.39-9.053c-11.036-19.101-17.89-42.679-17.89-71.037c0-48.724,30.321-97.379,58.744-97.379   c20.785,0,24.719,28.536,24.035,53.926c-0.969,35.692-21.868,86.293-50.349,113.203c21.302,37.56,60.37,61.892,108.317,60.22   c4.812-0.172,5.03,4.771,0.172,5.308c-36.678,4.131-89.053-13.119-118.642-57.208c-8.891,6.162-18.198,9.781-27.599,9.781   c-37.609,0-44.979-62.011-46.562-122.791c-7.016,15.858-14.656,35.76-23.12,53.159c-8.438,17.351-17.906,32.699-28.708,38.75   c-9.229,5.199-15.37,2.828-20.099-3.457c-26.599-35.411-10.531-148.714,27.38-216.282c-25.812,19.359-62.99,46.557-98.771,76.781   c4.193,12.536,8.589,25.198,13.011,37.776c10.208,29.118,20.411,57.739,28.067,83.412c7.662,25.649,12.812,48.51,12.812,66.041   c0,33.261-16.651,41.03-31.042,41.03c-24.797,0-52.531-19.113-76.141-43.821c-21.76-22.763-40.396-53.188-40.396-78.679   c0-35.771,25.25-63.672,76.146-107.771c-14.99-45.76-27.016-90.052-27.016-121.942C48.812,38.172,83.542,0,133.5,0   C143.922,0,150.338,1.62,154.162,2.812z M316.812,364.75C338.75,341.932,359.52,301,361.12,260.062   c1.052-27.142-5.631-42.803-13.142-42.803c-17.077,0-44.589,39.281-44.589,86.438C303.37,324.75,307.75,345.781,316.812,364.75z    M80.219,228.271c-26.609,22.61-67.37,56.792-67.37,94.948c0,46.021,64.151,113.969,101.859,113.969   c10.672,0,19.479-5.005,19.479-30.274c0-13.729-5.255-34.858-13.276-60.324c-12.511-39.771-27.359-78.771-40.662-118.26   L80.219,228.271z"
   id="path2"
   style="fill:#ffffff" />
</g>
</svg>