<?xml version="1.0" standalone="no"?>
<!DOCTYPE svg PUBLIC "-//W3C//DTD SVG 1.1//EN" "http://www.w3.org/Graphics/SVG/1.1/DTD/svg11.dtd" >
<svg xmlns="http://www.w3.org/2000/svg" xmlns:xlink="http://www.w3.org/1999/xlink" version="1.1">
<metadata></metadata>
<defs>
<font id="daimler_csprodemi" horiz-adv-x="1024" >
<font-face units-per-em="2048" ascent="1374" descent="-674" />
<missing-glyph horiz-adv-x="512" />
<glyph unicode="&#xfb01;" horiz-adv-x="1116" d="M33 813v160h133v61q0 101 10.5 157t36.5 97q74 113 233 113q93 0 191 -37v-170q-90 33 -154 33q-79 0 -104 -72q-10 -42 -10 -139v-43h235v-160h-233v-813h-205v813h-133zM741 1257q0 59 36.5 95.5t94.5 36.5q54 0 88.5 -36t34.5 -93q0 -56 -35 -90.5t-92 -34.5t-92 34 t-35 88zM766 0v973h205v-973h-205z" />
<glyph unicode="&#xfb02;" horiz-adv-x="1116" d="M33 813v160h133v61q0 101 10.5 157t36.5 97q74 113 233 113q93 0 191 -37v-170q-90 33 -154 33q-79 0 -104 -72q-10 -42 -10 -139v-43h235v-160h-233v-813h-205v813h-133zM766 0v1374h205v-1374h-205z" />
<glyph unicode="&#xfb03;" horiz-adv-x="1716" d="M33 813v160h133v61q0 99 10 154.5t35 95.5q35 56 97 86.5t138 30.5q90 0 191 -37v-170q-100 33 -154 33q-81 0 -102 -72q-12 -37 -12 -139v-43h397v61q0 103 9.5 157t35.5 93q35 55 97 86t139 31q86 0 190 -37v-170q-90 33 -152 33q-83 0 -104 -72q-12 -37 -12 -139v-43 h235v-160h-233v-813h-205v813h-395v-813h-205v813h-133zM1341 1257q0 59 36.5 95.5t95.5 36.5q54 0 88 -36t34 -93q0 -56 -35 -90.5t-92 -34.5t-92 34t-35 88zM1366 0v973h205v-973h-205z" />
<glyph unicode="&#xfb04;" horiz-adv-x="1716" d="M33 813v160h133v61q0 99 10 154.5t35 95.5q35 56 97 86.5t138 30.5q90 0 191 -37v-170q-100 33 -154 33q-81 0 -102 -72q-12 -37 -12 -139v-43h397v61q0 103 9.5 157t35.5 93q35 55 97 86t139 31q86 0 190 -37v-170q-90 33 -152 33q-83 0 -104 -72q-12 -37 -12 -139v-43 h235v-160h-233v-813h-205v813h-395v-813h-205v813h-133zM1366 0v1374h205v-1374h-205z" />
<glyph horiz-adv-x="0" />
<glyph horiz-adv-x="682" />
<glyph unicode=" "  horiz-adv-x="512" />
<glyph unicode="&#x09;" horiz-adv-x="512" />
<glyph unicode="&#xa0;" horiz-adv-x="512" />
<glyph unicode="!" horiz-adv-x="512" d="M117 119q0 57 40.5 97t100.5 40q56 0 96.5 -41t40.5 -96q0 -57 -41 -97t-98 -40q-58 0 -98.5 40t-40.5 97zM147 1335h218l-27 -915h-170z" />
<glyph unicode="&#x22;" horiz-adv-x="882" d="M184 1366h203l-37 -549h-131zM496 1366h202l-34 -549h-132z" />
<glyph unicode="#" horiz-adv-x="1228" d="M37 420l22 143h234l43 266h-234l23 144h233l62 393h166l-62 -393h275l61 393h166l-61 -393h237l-22 -144h-238l-43 -266h238l-23 -143h-237l-66 -420h-166l66 420h-275l-65 -420h-166l65 420h-233zM459 563h274l43 266h-274z" />
<glyph unicode="$" horiz-adv-x="1132" d="M86 426h199q6 -119 62.5 -185t170.5 -85v460q-174 59 -237 97q-164 95 -164 293q0 163 107.5 266.5t293.5 116.5v145h105v-148q172 -15 278 -117.5t105 -254.5h-199q-9 78 -56 127.5t-128 64.5v-407q168 -56 243 -101q189 -110 189 -319q0 -169 -118 -279.5t-314 -122.5 v-167h-105v167q-207 13 -321 132t-111 317zM319 1024q0 -93 82 -141q28 -16 117 -49v374q-199 -38 -199 -184zM623 154q104 9 163.5 63.5t59.5 140.5q0 100 -84 162q-36 24 -139 62v-428z" />
<glyph unicode="%" horiz-adv-x="1325" d="M57 1049q0 138 80 232.5t197 94.5q114 0 193 -95t79 -232q0 -139 -79 -234.5t-195 -95.5q-115 0 -195 96t-80 234zM178 0l795 1366h174l-797 -1366h-172zM197 1049q0 -92 37.5 -149.5t97.5 -57.5t97.5 57.5t37.5 149.5q0 89 -37.5 146.5t-95.5 57.5q-61 0 -99 -56.5 t-38 -147.5zM717 319q0 138 80 233t198 95q114 0 193.5 -95.5t79.5 -232.5q0 -138 -80 -233.5t-195 -95.5q-117 0 -196.5 95t-79.5 234zM856 319q0 -92 38 -149t99 -57q60 0 97.5 57t37.5 149q0 90 -37.5 147.5t-97.5 57.5q-61 0 -99 -57t-38 -148z" />
<glyph unicode="&#x26;" horiz-adv-x="1200" d="M70 365q0 110 55.5 195.5t204.5 207.5q-94 122 -121 176.5t-27 124.5q0 122 89.5 199.5t228.5 77.5q134 0 215.5 -75t81.5 -198q0 -94 -47 -169.5t-164 -172.5l254 -344q25 47 34 95.5t9 133.5v41h161q3 -38 3 -59q0 -119 -23.5 -203t-77.5 -159l174 -236h-215l-74 109 q-71 -68 -146.5 -97.5t-182.5 -29.5q-192 0 -312 106.5t-120 276.5zM260 352q0 -91 69.5 -149t178.5 -58q130 0 219 95l-285 378q-101 -78 -141.5 -137.5t-40.5 -128.5zM369 1075q0 -45 20 -84.5t90 -132.5q77 62 111.5 114t34.5 107q0 50 -35 81.5t-90 31.5t-93 -33.5 t-38 -83.5z" />
<glyph unicode="'" horiz-adv-x="512" d="M156 1366h202l-36 -549h-129z" />
<glyph unicode="(" horiz-adv-x="602" d="M133 483q0 278 63 505.5t185 387.5h154q-106 -154 -162 -380.5t-56 -503.5q0 -574 218 -902h-154q-248 328 -248 893z" />
<glyph unicode=")" horiz-adv-x="604" d="M68 -410q217 320 217 887q0 287 -55.5 517t-161.5 382h153q250 -325 250 -893q0 -563 -250 -893h-153z" />
<glyph unicode="*" d="M193 1061l32 100l234 -76v246h104v-246l236 76l30 -100l-233 -76l145 -199l-86 -61l-143 199l-145 -199l-84 61l143 199z" />
<glyph unicode="+" horiz-adv-x="1132" d="M102 608v152h385v399h158v-399h385v-152h-385v-399h-158v399h-385z" />
<glyph unicode="," horiz-adv-x="501" d="M57 -387q70 83 119.5 194t54.5 195q-66 3 -102.5 36.5t-36.5 90.5t42.5 97t103.5 40q68 0 108.5 -52t40.5 -138q0 -104 -46 -209.5t-155 -253.5h-129z" />
<glyph unicode="-" horiz-adv-x="546" d="M0 440v150h547v-150h-547z" />
<glyph unicode="." horiz-adv-x="518" d="M121 119q0 57 40.5 97t100.5 40q57 0 97 -40t40 -97t-40.5 -97t-98.5 -40t-98.5 40t-40.5 97z" />
<glyph unicode="/" horiz-adv-x="1153" d="M76 -354l835 1720h168l-835 -1720h-168z" />
<glyph unicode="0" horiz-adv-x="1132" d="M102 666q0 329 123.5 510.5t347.5 181.5q212 0 334.5 -184t122.5 -504q0 -322 -123 -505t-340 -183q-218 0 -341.5 182t-123.5 502zM309 666q0 -266 88 -414q54 -98 170 -98q54 0 98 25.5t70 72.5q88 151 88 418q0 127 -23.5 236.5t-64.5 180.5q-58 99 -166 99 q-117 0 -172 -99q-88 -151 -88 -421z" />
<glyph unicode="1" horiz-adv-x="1132" d="M346 995v119q134 5 206 58t95 167h141v-1339h-204v995h-238z" />
<glyph unicode="2" horiz-adv-x="1132" d="M154 0v164l30 37q223 270 319.5 389t163.5 214.5t77 128t10 79.5q0 73 -53 119.5t-136 46.5q-97 0 -153.5 -58.5t-65.5 -167.5h-178q2 191 109.5 298.5t297.5 107.5q177 0 283.5 -93.5t106.5 -248.5q0 -51 -11.5 -93.5t-38.5 -96.5t-95 -143.5t-156 -198.5t-246 -298h561 v-186h-825z" />
<glyph unicode="3" horiz-adv-x="1132" d="M129 391h184q3 -110 68 -170.5t182 -60.5q112 0 177 62t65 169q0 73 -35 125.5t-100 77.5q-61 22 -193 22q-23 0 -41 -2v172q25 -2 51 -2q137 0 211 55t74 156q0 85 -54 135t-143 50q-183 0 -213 -197h-176q6 178 113.5 276.5t294.5 98.5q174 0 279.5 -95t105.5 -251 q0 -208 -209 -295q122 -38 181 -117.5t59 -206.5q0 -186 -122.5 -299.5t-320.5 -113.5q-207 0 -323 109t-115 302z" />
<glyph unicode="4" horiz-adv-x="1132" d="M72 297v162l524 880h227v-874h238v-168h-234v-311h-206v311h-549zM266 465h365l2 635z" />
<glyph unicode="5" horiz-adv-x="1132" d="M135 352h193q15 -94 69.5 -143t145.5 -49q109 0 175 81.5t66 215.5q0 125 -61 200.5t-162 75.5q-133 0 -219 -125l-178 25l115 698h641l-15 -182h-473l-55 -320q57 41 105 57.5t112 16.5q181 0 293 -120.5t112 -315.5q0 -209 -127.5 -347t-322.5 -138q-179 0 -291.5 100 t-122.5 270z" />
<glyph unicode="6" horiz-adv-x="1132" d="M129 457q0 254 201 549q58 85 111 149.5t175 200.5h226q-230 -267 -350 -467q59 20 120 20q172 0 282 -126t110 -324q0 -212 -120 -344.5t-311 -132.5q-193 0 -318.5 134.5t-125.5 340.5zM336 453q0 -129 65 -213t166 -84q103 0 165.5 81t62.5 216q0 130 -64.5 212.5 t-165.5 82.5t-165 -82.5t-64 -212.5z" />
<glyph unicode="7" horiz-adv-x="1132" d="M131 1137v194h870v-160l-641 -1171h-227l625 1137h-627z" />
<glyph unicode="8" horiz-adv-x="1132" d="M127 387q0 210 184 315q-153 87 -153 275q0 163 117 272t292 109q173 0 290.5 -109t117.5 -272q0 -188 -154 -275q185 -105 185 -315q0 -177 -124.5 -291t-316.5 -114q-191 0 -314.5 114t-123.5 291zM334 381q0 -101 65 -166t166 -65t166.5 65t65.5 166t-65 167t-165 66 q-103 0 -168 -65t-65 -168zM365 985q0 -91 56 -148t146 -57q89 0 145 57t56 148t-55.5 148t-143.5 57q-92 0 -148 -56.5t-56 -148.5z" />
<glyph unicode="9" horiz-adv-x="1132" d="M129 872q0 214 124.5 350t319.5 136q194 0 312.5 -131t118.5 -346q0 -201 -115 -413t-377 -493h-225q91 101 196 241.5t158 229.5q-56 -20 -121 -20q-169 0 -280 126.5t-111 319.5zM336 883q0 -130 64 -212.5t165 -82.5q103 0 166.5 82.5t63.5 214.5q0 133 -62 216 t-162 83q-104 0 -169.5 -83.5t-65.5 -217.5z" />
<glyph unicode=":" horiz-adv-x="518" d="M121 119q0 57 40.5 97t100.5 40q57 0 97 -40t40 -97t-40.5 -97t-98.5 -40t-98.5 40t-40.5 97zM121 834q0 57 40.5 97t100.5 40q57 0 97 -40t40 -97t-40.5 -97.5t-98.5 -40.5t-98.5 40.5t-40.5 97.5z" />
<glyph unicode=";" horiz-adv-x="501" d="M57 -387q70 83 119.5 194t54.5 195q-66 3 -102.5 36.5t-36.5 90.5t42.5 97t103.5 40q68 0 108.5 -52t40.5 -138q0 -104 -46 -209.5t-155 -253.5h-129zM96 834q0 57 41 97t101 40q56 0 96.5 -40t40.5 -97t-40.5 -97.5t-98.5 -40.5t-99 40.5t-41 97.5z" />
<glyph unicode="&#x3c;" d="M68 608v170l886 432v-200l-673 -318l673 -317v-199z" />
<glyph unicode="=" horiz-adv-x="1132" d="M102 453v153h928v-153h-928zM102 762v153h928v-153h-928z" />
<glyph unicode="&#x3e;" d="M70 174v201l673 317l-673 320v198l886 -432v-172z" />
<glyph unicode="?" horiz-adv-x="849" d="M100 995q3 89 20 145t54 99q99 117 285 117q155 0 243.5 -80.5t88.5 -220.5q0 -83 -32.5 -143t-135.5 -169q-85 -89 -101 -131.5t-14 -173.5v-20h-191q-1 75 -0.5 112.5t6 80.5t11.5 61t25 50t37 52t57 62q75 78 98.5 118t23.5 90q0 60 -38.5 96t-102.5 36 q-155 0 -170 -181h-164zM274 119q0 57 41 97t101 40q56 0 96.5 -40t40.5 -97t-40.5 -97t-98.5 -40t-99 40t-41 97z" />
<glyph unicode="@" horiz-adv-x="1501" d="M66 674q0 151 54.5 284.5t149.5 228t228.5 149.5t285.5 55q187 0 336 -78t232.5 -217t83.5 -314q0 -126 -47 -239.5t-125.5 -181.5t-165.5 -68q-60 0 -100.5 35.5t-53.5 99.5q-94 -137 -248 -137q-130 0 -213.5 92.5t-83.5 237.5q0 167 106.5 289t252.5 122 q149 0 215 -129l20 107h144l-80 -414q-15 -82 -15 -94q0 -40 17 -65t45 -25q76 0 138.5 115t62.5 255q0 215 -143.5 348.5t-375.5 133.5q-250 0 -413.5 -167.5t-163.5 -424.5q0 -120 41.5 -227.5t116.5 -184.5q153 -160 440 -160q211 0 397 82l35 -129q-195 -80 -432 -80 q-335 0 -533 189q-99 95 -153.5 229.5t-54.5 282.5zM563 621q0 -89 44.5 -141t119.5 -52q88 0 145.5 79.5t57.5 199.5q0 86 -40.5 134t-111.5 48q-89 0 -152 -79t-63 -189z" />
<glyph unicode="A" horiz-adv-x="1198" d="M31 0l465 1370h204l467 -1370h-219l-100 319h-498l-102 -319h-217zM406 502h387l-195 614z" />
<glyph unicode="B" horiz-adv-x="1167" d="M170 0v1366h311q129 0 199 -7t127 -26q99 -35 155 -117t56 -192q0 -117 -54 -187.5t-171 -107.5q152 -35 225.5 -119.5t73.5 -222.5q0 -124 -66.5 -220.5t-175.5 -131.5q-69 -22 -144 -28.5t-253 -6.5h-283zM377 174h127q117 0 171 6t93 25q49 22 76.5 73.5t27.5 120.5 q0 73 -33.5 126.5t-93.5 76.5q-41 15 -89 20t-148 5h-131v-453zM377 797h121q156 0 219 32q43 22 67.5 67t24.5 103t-27 103t-73 65q-65 25 -224 25h-108v-395z" />
<glyph unicode="C" horiz-adv-x="1228" d="M88 680q0 375 209 569q75 68 172.5 105t202.5 37q204 0 326 -114.5t141 -324.5h-187q-50 254 -282 254q-166 0 -263.5 -141.5t-97.5 -382.5t98 -381.5t267 -140.5q129 0 203.5 82.5t89.5 244.5h192q-15 -249 -138 -380.5t-341 -131.5q-270 0 -431 192t-161 513z" />
<glyph unicode="D" horiz-adv-x="1304" d="M170 0v1366h276q174 0 274.5 -16.5t178.5 -57.5q147 -78 232.5 -241.5t85.5 -366.5t-82 -364.5t-224 -239.5q-86 -49 -182 -64.5t-311 -15.5h-248zM381 182h111q133 0 199.5 13.5t125.5 52.5q86 57 133 171.5t47 266.5t-50 266t-144 172q-61 38 -128 49t-235 11h-59 v-1002z" />
<glyph unicode="E" horiz-adv-x="1064" d="M170 0v1366h809v-182h-598v-385h549v-183h-549v-434h614v-182h-825z" />
<glyph unicode="F" horiz-adv-x="1032" d="M170 0v1366h809v-182h-598v-385h549v-183h-549v-616h-211z" />
<glyph unicode="G" horiz-adv-x="1294" d="M88 684q0 321 161.5 514t428.5 193q121 0 220.5 -43t162.5 -121q44 -55 66.5 -118t31.5 -155h-188q-47 252 -289 252q-175 0 -274 -138.5t-99 -383.5q0 -249 102 -386.5t287 -137.5q157 0 299 88v278h-276v166h457v-565q-216 -152 -480 -152q-283 0 -446.5 190 t-163.5 519z" />
<glyph unicode="H" horiz-adv-x="1349" d="M170 0v1366h211v-565h590v565h211v-1366h-211v627h-590v-627h-211z" />
<glyph unicode="I" horiz-adv-x="550" d="M168 0v1366h213v-1366h-213z" />
<glyph unicode="J" horiz-adv-x="641" d="M-6 -51q100 0 152.5 13t82.5 46q23 29 29 74.5t6 191.5v1092h213v-1090q0 -169 -7.5 -229t-35.5 -113q-81 -163 -377 -163q-34 0 -63 2v176z" />
<glyph unicode="K" horiz-adv-x="1214" d="M170 0v1366h211v-1366h-211zM385 721l524 645h248l-532 -639l575 -727h-276z" />
<glyph unicode="L" horiz-adv-x="1015" d="M170 0v1366h217v-1184h588v-182h-805z" />
<glyph unicode="M" horiz-adv-x="1619" d="M170 0v1366h303l336 -1137l340 1137h301v-1366h-195v1133l-337 -1133h-218l-335 1133v-1133h-195z" />
<glyph unicode="N" horiz-adv-x="1368" d="M170 0v1366h227l600 -1044v1044h201v-1366h-219l-608 1042v-1042h-201z" />
<glyph unicode="O" horiz-adv-x="1351" d="M88 692q0 310 164.5 504.5t425.5 194.5q174 0 308 -88.5t207 -249t73 -369.5q0 -318 -162 -513.5t-426 -195.5q-267 0 -428.5 196t-161.5 521zM309 690q0 -248 98.5 -390t270.5 -142q169 0 267.5 141.5t98.5 384.5q0 242 -98.5 383t-267.5 141t-269 -141t-100 -377z" />
<glyph unicode="P" horiz-adv-x="1120" d="M170 0v1366h274q156 0 237 -8t146 -31q115 -38 181.5 -141.5t66.5 -243.5q0 -135 -64.5 -236t-176.5 -139q-61 -22 -138 -29.5t-225 -7.5h-90v-530h-211zM381 713h90q106 0 153.5 4t90.5 16q66 19 103.5 75t37.5 136q0 73 -30.5 127.5t-84.5 79.5q-43 19 -100 26t-172 7 h-88v-471z" />
<glyph unicode="Q" horiz-adv-x="1384" d="M88 684q0 156 43 287.5t120 224t187 144t240 51.5q261 0 424.5 -195t163.5 -510q0 -209 -80 -387l276 -307h-250l-135 149q-163 -166 -401 -166q-262 0 -425 196t-163 513zM309 690q0 -246 99.5 -389t269.5 -143q166 0 266 143t100 381q0 239 -100 382.5t-266 143.5 t-267.5 -142.5t-101.5 -375.5z" />
<glyph unicode="R" horiz-adv-x="1181" d="M170 0v1366h293q170 0 253 -11.5t152 -43.5q97 -46 152 -139t55 -211q0 -271 -260 -377l336 -584h-250l-309 549h-211v-549h-211zM381 731h94q109 0 157.5 5t90.5 20q63 23 98 77.5t35 129.5q0 65 -27.5 113t-78.5 73q-43 22 -96 28.5t-189 6.5h-84v-453z" />
<glyph unicode="S" horiz-adv-x="1140" d="M84 442h205q12 -139 86.5 -210.5t208.5 -71.5q109 0 178 52t69 134q0 89 -88 150q-32 21 -68 38.5t-157 69.5q-206 88 -280 156q-109 100 -109 252q0 166 123.5 272.5t316.5 106.5q118 0 215 -44t154 -124q35 -49 51 -102.5t21 -133.5h-203q-9 104 -73.5 161.5 t-170.5 57.5q-95 0 -159 -50.5t-64 -125.5q0 -76 76 -121q6 -4 12 -7.5t11.5 -7t13.5 -7.5l14 -7t18.5 -8.5t20.5 -9t26.5 -11.5t31 -13.5t39.5 -17t46 -19.5q149 -62 211.5 -97t100.5 -77q88 -97 88 -246q0 -185 -127.5 -295.5t-341.5 -110.5q-232 0 -359 119t-137 348z " />
<glyph unicode="T" horiz-adv-x="991" d="M33 1184v182h928v-182h-361v-1184h-211v1184h-356z" />
<glyph unicode="U" horiz-adv-x="1333" d="M154 569v797h211v-793q0 -124 6 -175t26 -93q31 -69 102.5 -107t168.5 -38q105 0 178.5 45t101.5 125q14 39 18.5 87t4.5 156v793h211v-797q0 -151 -8.5 -216t-34.5 -124q-56 -120 -180 -187t-291 -67t-291 67t-180 187q-26 61 -34.5 125t-8.5 215z" />
<glyph unicode="V" horiz-adv-x="1202" d="M20 1366h226l356 -1124l354 1124h222l-471 -1370h-220z" />
<glyph unicode="W" horiz-adv-x="1691" d="M27 1366h198l262 -1112l269 1112h182l266 -1112l266 1112h195l-340 -1370h-235l-246 973l-244 -973h-235z" />
<glyph unicode="X" horiz-adv-x="1157" d="M31 0l426 713l-396 653h242l279 -471l282 471h242l-404 -653l426 -713h-241l-305 520l-312 -520h-239z" />
<glyph unicode="Y" horiz-adv-x="1103" d="M10 1366h238l307 -588l301 588h236l-437 -811l2 -555h-213l2 555z" />
<glyph unicode="Z" horiz-adv-x="1017" d="M53 0v166l658 1022h-605v178h861v-147l-664 -1037h645v-182h-895z" />
<glyph unicode="[" horiz-adv-x="602" d="M170 -397v1763h362v-160h-184v-1442h184v-161h-362z" />
<glyph unicode="\" horiz-adv-x="1153" d="M76 1366h168l835 -1720h-168z" />
<glyph unicode="]" horiz-adv-x="602" d="M72 -238h184v1442h-184v162h362v-1763h-362v159z" />
<glyph unicode="^" d="M33 721l346 651h266l346 -651h-213l-266 491l-266 -491h-213z" />
<glyph unicode="_" d="M0 -117h1024v-182h-1024v182z" />
<glyph unicode="`" d="M172 1415h262l238 -309h-158z" />
<glyph unicode="a" horiz-adv-x="1013" d="M90 256q0 101 57 175.5t166 115.5q65 25 130 40.5t235 45.5v26q0 94 -39 133t-131 39q-164 0 -191 -133h-194q9 73 32 120.5t66 86.5q111 90 299 90q123 0 207 -39.5t115 -111.5q18 -40 24 -87.5t6 -142.5v-378q0 -97 6.5 -148t24.5 -88h-186q-17 64 -17 121 q-80 -144 -278 -144q-154 0 -243 75t-89 204zM297 279q0 -63 46 -102.5t120 -39.5q62 0 111 27t75 76q29 54 29 178v76q-212 -32 -296.5 -79.5t-84.5 -135.5z" />
<glyph unicode="b" horiz-adv-x="1085" d="M133 0q10 85 10 264v1110h201v-534q59 83 121.5 119t150.5 36q170 0 279 -142.5t109 -365.5q0 -226 -114.5 -368t-295.5 -142q-177 0 -264 156q-3 -78 -19 -133h-178zM342 481q0 -152 61 -243t164 -91q106 0 168 92.5t62 249.5q0 154 -59 244t-160 90q-109 0 -172.5 -92 t-63.5 -250z" />
<glyph unicode="c" horiz-adv-x="987" d="M80 483q0 235 121 375.5t323 140.5q163 0 260 -89.5t117 -258.5h-199q-15 97 -58.5 141t-123.5 44q-107 0 -170 -95.5t-63 -257.5q0 -163 62.5 -254.5t172.5 -91.5q86 0 131.5 48.5t57.5 154.5h196q-10 -170 -114 -268.5t-271 -98.5q-199 0 -320.5 140.5t-121.5 369.5z " />
<glyph unicode="d" horiz-adv-x="1083" d="M82 477q0 227 111 372.5t284 145.5q89 0 147.5 -32.5t114.5 -110.5v522h201v-1075q2 -151 5 -201.5t13 -97.5h-190q-12 49 -12 94q0 23 2 43q-50 -85 -114 -122.5t-161 -37.5q-181 0 -291 137t-110 363zM289 481q0 -155 60.5 -244.5t164.5 -89.5q106 0 167.5 91.5 t61.5 248.5t-60 247.5t-163 90.5q-108 0 -169.5 -91.5t-61.5 -252.5z" />
<glyph unicode="e" horiz-adv-x="1026" d="M80 475q0 236 123 380t325 144q192 0 306 -139t114 -375q0 -25 -2 -43h-663q6 -148 72 -225.5t186 -77.5q74 0 123 30.5t81 96.5l181 -12q-40 -135 -141 -208t-250 -73q-206 0 -330.5 137.5t-124.5 364.5zM289 592h452q-27 246 -219 246q-94 0 -151 -60.5t-82 -185.5z " />
<glyph unicode="f" horiz-adv-x="628" d="M33 813v160h133v61q0 101 10.5 157t36.5 97q74 113 233 113q93 0 191 -37v-170q-90 33 -154 33q-79 0 -104 -72q-10 -42 -10 -139v-43h235v-160h-233v-813h-205v813h-133z" />
<glyph unicode="g" horiz-adv-x="1040" d="M49 -131q0 86 48 141t153 92q-57 23 -82 50t-25 65q0 49 39 85t133 73q-92 41 -135 108.5t-43 169.5q0 154 104 246t279 92q79 0 170 -26l309 8v-148l-198 2q65 -75 65 -196q0 -83 -36.5 -146.5t-102.5 -95.5q-51 -23 -95 -33t-190 -32q-44 -6 -73 -26t-29 -44 q0 -16 5 -24t28.5 -15.5t60.5 -12.5t111 -12q132 -12 194.5 -25t108.5 -38q60 -32 93.5 -92t33.5 -135q0 -148 -122.5 -231t-340.5 -83q-212 0 -337.5 77t-125.5 206zM225 -115q0 -67 78.5 -106t212.5 -39q123 0 193.5 38.5t70.5 104.5q0 69 -76 106.5t-215 37.5 q-124 0 -194 -38t-70 -104zM317 655q0 -77 51 -123.5t134 -46.5q86 0 137 46.5t51 123.5q0 79 -51 130t-131 51q-86 0 -138.5 -49.5t-52.5 -131.5z" />
<glyph unicode="h" horiz-adv-x="1085" d="M145 0v1374h201v-512q106 133 281 133q88 0 161 -35t111 -96q29 -45 39 -108t10 -197v-559h-200v526q0 148 -27 201q-46 90 -156 90q-58 0 -106.5 -28.5t-77.5 -79.5q-35 -63 -35 -193v-516h-201z" />
<glyph unicode="i" horiz-adv-x="495" d="M121 1257q0 59 36.5 95.5t94.5 36.5q54 0 88.5 -36t34.5 -93q0 -56 -35 -90.5t-92 -34.5t-92 34t-35 88zM145 0v973h205v-973h-205z" />
<glyph unicode="j" horiz-adv-x="536" d="M-70 -205h31q160 0 207 86q15 30 17.5 63t4.5 169v860h205v-858q1 -28 1 -55q0 -234 -94 -335q-99 -105 -337 -105q-17 0 -35 1v174zM168 1260q0 57 36.5 93t94.5 36q55 0 89 -35t34 -92t-35 -92t-92 -35t-92 34.5t-35 90.5z" />
<glyph unicode="k" horiz-adv-x="1046" d="M145 0v1374h201v-1374h-201zM350 524l381 449h244l-385 -445l416 -528h-273z" />
<glyph unicode="l" horiz-adv-x="495" d="M145 0v1374h205v-1374h-205z" />
<glyph unicode="m" horiz-adv-x="1642" d="M121 973h194q21 -55 21 -131q98 153 289 153q197 0 274 -164q59 85 132.5 124.5t174.5 39.5q94 0 162 -35t100 -100q23 -46 29 -91.5t6 -188.5v-580h-200v578q0 123 -25 172q-42 67 -148 67q-204 0 -204 -256v-561h-201v555q0 90 -4 124.5t-16 59.5q-40 78 -150 78 q-63 0 -111 -27.5t-71 -78.5q-27 -61 -27 -158v-553h-201v709q0 126 -3.5 170.5t-20.5 93.5z" />
<glyph unicode="n" horiz-adv-x="1079" d="M119 973h194q19 -53 19 -133q104 155 295 155q93 0 167 -40t109 -109q25 -47 32 -99.5t7 -187.5v-559h-201v526q0 148 -24 203q-42 88 -152 88q-59 0 -107 -27.5t-77 -78.5q-35 -60 -35 -193v-518h-201v633q0 172 -4 223.5t-22 116.5z" />
<glyph unicode="o" horiz-adv-x="1067" d="M80 494q0 218 129 361.5t326 143.5q198 0 325 -145t127 -369t-127 -368t-325 -144q-201 0 -328 145.5t-127 375.5zM287 489q0 -160 67.5 -256t180.5 -96q109 0 177 96.5t68 251.5t-68 253t-177 98t-178.5 -97t-69.5 -250z" />
<glyph unicode="p" horiz-adv-x="1083" d="M127 973h190q19 -59 19 -127q50 78 114 113.5t156 35.5q179 0 288.5 -139.5t109.5 -366.5q0 -226 -109 -369t-281 -143q-86 0 -148.5 33.5t-119.5 108.5v-522h-201v1075q-2 152 -5 203t-13 98zM342 483q0 -151 63.5 -242t169.5 -91q104 0 163 89t59 248q0 156 -60 247 t-162 91q-107 0 -170 -92.5t-63 -249.5z" />
<glyph unicode="q" horiz-adv-x="1083" d="M82 479q0 232 111 374t294 142q181 0 263 -149q0 75 18 127h190q-10 -47 -13 -98t-5 -203v-1075h-201v520q-57 -77 -114 -108.5t-140 -31.5q-179 0 -291 139.5t-112 362.5zM289 483q0 -153 61 -243t164 -90q106 0 167.5 89.5t61.5 247.5q0 153 -62.5 245.5t-166.5 92.5 q-103 0 -164 -92.5t-61 -249.5z" />
<glyph unicode="r" horiz-adv-x="722" d="M131 973h193q14 -82 14 -150q0 -30 -2 -55q54 117 118.5 172t147.5 55q37 0 96 -20v-203q-76 43 -141 43q-119 0 -176 -133q-35 -77 -35 -238v-444h-203v657q0 151 -2 199t-10 117z" />
<glyph unicode="s" horiz-adv-x="948" d="M84 313h190q7 -93 57.5 -137.5t147.5 -44.5q83 0 130.5 36.5t47.5 98.5q0 32 -14.5 53.5t-48.5 40.5q-42 21 -211 72q-146 43 -201 98q-63 66 -63 170q0 134 100.5 216.5t263.5 82.5q166 0 262 -81t105 -230h-195q-11 78 -54 116t-122 38q-70 0 -115 -34.5t-45 -88.5 t41.5 -80.5t190.5 -69.5q110 -32 165.5 -58t86.5 -60q57 -69 57 -170q0 -143 -100.5 -225.5t-274.5 -82.5q-195 0 -298 87t-103 253z" />
<glyph unicode="t" horiz-adv-x="690" d="M51 813l2 160h154l6 278h195l-5 -278h213l-2 -160h-215l-6 -430q-2 -66 -2 -82q0 -84 22.5 -114.5t82.5 -30.5q72 0 143 32l-2 -170q-99 -38 -197 -38q-157 0 -223 104q-19 31 -26 69.5t-7 108.5q0 23 4 121l13 430h-150z" />
<glyph unicode="u" horiz-adv-x="1081" d="M139 393v580h201v-574q0 -132 33 -176q48 -67 149 -67q122 0 178 100q35 60 35 182v535h201v-674q0 -159 3.5 -199.5t21.5 -99.5h-193q-17 49 -20 121q-50 -76 -112.5 -110t-154.5 -34q-96 0 -173 39t-120 109q-49 80 -49 268z" />
<glyph unicode="v" horiz-adv-x="960" d="M20 973h211l248 -754l246 754h211l-346 -981h-223z" />
<glyph unicode="w" horiz-adv-x="1449" d="M29 973h204l193 -727l215 727h166l213 -727l197 727h202l-286 -981h-209l-203 665l-201 -665h-209z" />
<glyph unicode="x" horiz-adv-x="968" d="M6 0l356 518l-307 455h240l188 -307l193 307h242l-310 -455l353 -518h-244l-234 358l-233 -358h-244z" />
<glyph unicode="y" horiz-adv-x="964" d="M33 973h213l239 -774l246 774h211l-326 -926q-66 -189 -99.5 -252t-94.5 -114q-113 -91 -301 -91q-37 0 -66 2v175q16 2 37 2h14q120 5 173 44.5t94 157.5z" />
<glyph unicode="z" horiz-adv-x="843" d="M45 0v156l502 651h-455v166h701v-150l-510 -657h508v-166h-746z" />
<glyph unicode="{" horiz-adv-x="602" d="M92 418v131q63 17 88 58t25 128v320q0 183 67 252t242 69h64v-157q-48 -1 -76.5 -3.5t-52.5 -10.5t-35.5 -19t-19.5 -33.5t-10 -49.5t-1 -71v-289q-1 -112 -25.5 -164.5t-95.5 -95.5q71 -43 95.5 -94.5t25.5 -163.5v-288q-1 -44 0.5 -71.5t9.5 -50t20.5 -34.5t36 -20 t53 -10.5t75.5 -2.5v-156q-29 -2 -64 -2q-175 0 -242 69.5t-67 252.5v319q0 88 -25 130t-88 57z" />
<glyph unicode="|" d="M412 -342v1708h200v-1708h-200z" />
<glyph unicode="}" horiz-adv-x="602" d="M25 -252h28q125 0 152 55q14 35 14 134v288q1 112 25.5 163.5t95.5 94.5q-71 43 -95.5 95.5t-25.5 164.5v289q1 44 -1 70.5t-10 49.5t-19 34t-35.5 19t-52.5 10.5t-76 3.5v157h63q175 0 242 -69t67 -252v-320q0 -87 25 -128t88 -58v-131q-63 -15 -88 -57t-25 -130v-319 q0 -102 -15.5 -158t-53.5 -96q-38 -37 -93.5 -52.5t-146.5 -15.5q-34 0 -63 2v156z" />
<glyph unicode="~" horiz-adv-x="1366" d="M188 496q47 100 74 139q85 119 219 119q74 0 224 -62q85 -36 119.5 -46.5t68.5 -10.5q54 0 89.5 26t78.5 97l117 -70q-36 -76 -64 -115t-65 -69q-83 -64 -183 -64q-39 0 -95 17.5t-196 74.5q-66 27 -110 27q-49 0 -85.5 -31t-76.5 -106z" />
<glyph unicode="&#xa1;" horiz-adv-x="512" d="M117 834q0 57 40.5 97t98.5 40t98.5 -40t40.5 -97t-40.5 -97.5t-100.5 -40.5q-57 0 -97 40.5t-40 97.5zM147 -381l27 916h170l21 -916h-218z" />
<glyph unicode="&#xa2;" horiz-adv-x="1132" d="M152 694q0 215 100 351t280 165v170h105v-170q145 -12 235 -103t105 -239h-203q-9 75 -41 115t-98 59v-680q130 34 147 195h199q-6 -146 -103.5 -248t-242.5 -112v-197h-107v199q-178 29 -277 159t-99 336zM356 692q0 -130 45.5 -214.5t130.5 -112.5v673 q-86 -34 -131 -123t-45 -223z" />
<glyph unicode="&#xa3;" horiz-adv-x="1132" d="M80 -12q121 142 196 641h-178v153h207l4 17q32 180 50.5 252t50.5 145q79 190 303 190q88 0 155.5 -30t104.5 -86q44 -67 53 -205h-180q-8 77 -38 111t-91 34q-64 0 -97.5 -38t-58.5 -138q-15 -56 -45 -252h311v-151h-340q-43 -302 -143 -469q105 28 215 28 q13 0 29.5 -0.5t45.5 -1.5t54 -2l70 -2q73 0 92 31q30 45 33 137h168q0 -90 -12.5 -146.5t-43.5 -107.5q-34 -57 -89 -81.5t-148 -24.5q-37 0 -201 10q-83 6 -154 6q-150 0 -323 -20z" />
<glyph unicode="&#xa4;" horiz-adv-x="1366" d="M76 1243l112 113l203 -203q136 96 293 96q153 0 287 -94l200 201l113 -113l-201 -201q52 -73 75.5 -140.5t23.5 -145.5q0 -153 -97 -287l203 -203l-110 -112l-203 202q-135 -98 -291 -98q-147 0 -293 98l-201 -200l-110 110l199 203q-97 132 -97 285q0 78 23.5 145.5 t75.5 140.5zM369 754q0 -129 92 -222.5t221 -93.5t221 93t92 223q0 129 -91 222t-218 93q-133 0 -225 -91.5t-92 -223.5z" />
<glyph unicode="&#xa5;" horiz-adv-x="1132" d="M39 1366h237l293 -590l293 590h234l-242 -471h186v-131h-254l-77 -150h331v-131h-364v-483h-211v483h-371v131h336l-78 150h-258v131h191z" />
<glyph unicode="&#xa6;" d="M412 313h200v-655h-200v655zM412 672v694h200v-694h-200z" />
<glyph unicode="&#xa7;" d="M102 37h170q15 -112 67 -160.5t157 -48.5q89 0 139.5 42t50.5 116q0 43 -22 74.5t-78 66.5q-26 17 -228 125q-132 69 -193 143t-61 164q0 153 181 264q-70 57 -98.5 108t-28.5 122q0 132 101 218.5t255 86.5q171 0 265.5 -93t101.5 -270h-166q-14 103 -61 151t-136 48 q-77 0 -125.5 -39t-48.5 -100q0 -57 41 -92q21 -19 47 -34.5t139 -76.5q193 -104 252 -152q92 -77 92 -194q0 -170 -180 -270q74 -56 105.5 -114.5t31.5 -139.5q0 -149 -99.5 -233.5t-274.5 -84.5q-192 0 -293.5 95t-102.5 278zM289 569q0 -62 57.5 -109.5t253.5 -148.5 q133 78 133 174q0 40 -20 69.5t-66 57.5q-117 74 -223 127q-135 -77 -135 -170z" />
<glyph unicode="&#xa8;" d="M211 1266q0 52 36.5 88.5t88.5 36.5q51 0 87 -36t36 -87q0 -52 -36 -88.5t-87 -36.5q-52 0 -88.5 36t-36.5 87zM565 1266q0 53 36.5 89t90.5 36q51 0 87 -36t36 -87q0 -52 -36.5 -88.5t-88.5 -36.5q-51 0 -88 36t-37 87z" />
<glyph unicode="&#xa9;" horiz-adv-x="1572" d="M78 682q0 195 95 358.5t260 258t362 94.5q187 0 348 -96t255.5 -259.5t94.5 -353.5q0 -115 -36 -223.5t-101.5 -195.5t-152.5 -152.5t-195.5 -101.5t-223.5 -36q-143 0 -274 56t-225.5 151t-150.5 226t-56 274zM188 682q0 -165 80 -305t218 -221.5t300 -81.5t299.5 81.5 t217 222t79.5 306.5q0 122 -47 234.5t-126.5 194.5t-188 130.5t-227.5 48.5q-125 0 -237 -47.5t-192.5 -129t-128 -194.5t-47.5 -239zM442 690q0 194 102 311t271 117q134 0 214 -71.5t89 -198.5h-129q-29 149 -172 149q-103 0 -164 -83t-61 -222q0 -138 61.5 -219.5 t165.5 -81.5q80 0 126 50t52 143h131q-5 -146 -87.5 -230t-221.5 -84q-170 0 -273.5 115t-103.5 305z" />
<glyph unicode="&#xaa;" d="M227 567v95h553v-95h-553zM246 934q0 110 108 166q36 20 72.5 30t165.5 37l22 7v16q0 44 -25 65t-79 21t-82.5 -21t-34.5 -67h-129q8 94 72.5 144t181.5 50q75 0 128.5 -24t76.5 -68q13 -24 16.5 -49t3.5 -92v-227q0 -103 21 -146h-125q-9 34 -12 64q-34 -41 -73 -58.5 t-99 -17.5q-95 0 -152 46t-57 124zM381 948q0 -35 27 -57.5t71 -22.5q71 0 103 39t32 125v47q-136 -28 -184.5 -55t-48.5 -76z" />
<glyph unicode="&#xab;" horiz-adv-x="897" d="M70 477l204 498h164l-172 -498l172 -477h-164zM399 477l205 498h164l-172 -498l172 -477h-164z" />
<glyph unicode="&#xac;" d="M68 358v189h886v-547h-200v358h-686z" />
<glyph unicode="&#xad;" horiz-adv-x="546" d="M0 440v150h547v-150h-547z" />
<glyph unicode="&#xae;" horiz-adv-x="1572" d="M78 682q0 195 95 358.5t260 258t362 94.5q187 0 348 -96t255.5 -259.5t94.5 -353.5q0 -115 -36 -223.5t-101.5 -195.5t-152.5 -152.5t-195.5 -101.5t-223.5 -36q-143 0 -274 56t-225.5 151t-150.5 226t-56 274zM182 682q0 -125 48 -238.5t128.5 -195.5t192.5 -131 t235 -49q163 0 302 82.5t220 224.5t81 309q0 165 -80.5 307t-218 225.5t-297.5 83.5q-168 0 -308.5 -82t-221.5 -224t-81 -312zM522 270v820h191q103 0 156 -7t98 -26q61 -28 96 -84.5t35 -128.5q0 -158 -158 -223l211 -351h-168l-195 326h-122v-326h-144zM666 715h53 q110 0 151 14q80 28 80 117q0 76 -63 104q-26 13 -57.5 17t-116.5 4h-47v-256z" />
<glyph unicode="&#xaf;" d="M223 1196v131h576v-131h-576z" />
<glyph unicode="&#xb0;" d="M211 1100q0 119 89.5 205t213.5 86q125 0 213 -86t88 -209t-88 -210t-213 -87q-127 0 -215 87.5t-88 213.5zM338 1098q0 -74 51 -125t125 -51q72 0 124 51t52 123q0 70 -52 121t-124 51t-124 -50.5t-52 -119.5z" />
<glyph unicode="&#xb1;" horiz-adv-x="1132" d="M102 27v153h928v-153h-928zM102 639v152h385v399h158v-399h385v-152h-385v-348h-158v348h-385z" />
<glyph unicode="&#xb2;" horiz-adv-x="739" d="M113 872v107l20 22q175 201 242.5 283.5t90.5 121.5t23 73q0 41 -31 66.5t-81 25.5q-124 0 -133 -133h-121q0 120 68 186t192 66q110 0 179 -57.5t69 -151.5q0 -49 -24 -97.5t-89.5 -130t-222.5 -258.5h344v-123h-526z" />
<glyph unicode="&#xb3;" horiz-adv-x="739" d="M84 1124h125q0 -64 38.5 -98.5t110.5 -34.5q69 0 107.5 33.5t38.5 93.5q0 47 -28 79.5t-77 41.5q-23 3 -125 6v115q16 -2 37 -2q174 0 174 119q0 46 -31.5 73t-84.5 27q-114 0 -129 -113h-121q3 109 71.5 169.5t188.5 60.5q111 0 178.5 -56.5t67.5 -150.5 q0 -120 -121 -174q67 -22 103 -72t36 -121q0 -109 -78.5 -177.5t-202.5 -68.5q-134 0 -206.5 65t-71.5 185z" />
<glyph unicode="&#xb4;" d="M387 1106l238 309h262l-342 -309h-158z" />
<glyph unicode="&#xb5;" d="M76 -348v1331h200v-541q0 -102 16 -155.5t58 -93.5q64 -64 160 -64q106 0 174 84q35 46 49.5 100t14.5 144v526h200v-983h-200v147q-43 -89 -100.5 -129.5t-141.5 -40.5q-75 0 -130.5 33.5t-99.5 106.5v-465h-200z" />
<glyph unicode="&#xb6;" horiz-adv-x="1271" d="M49 1004q0 101 45 182t125 125q101 55 303 55h602v-158h-135v-1403h-174v1403h-194v-1403h-175v846h-26q-164 0 -267.5 98t-103.5 255z" />
<glyph unicode="&#xb7;" horiz-adv-x="518" d="M121 512q0 57 40.5 97t100.5 40q57 0 97 -40t40 -97t-40.5 -97t-98.5 -40t-98.5 40t-40.5 97z" />
<glyph unicode="&#xb8;" d="M328 -328q56 -23 77 -28.5t46 -5.5q49 0 77.5 28t28.5 74q0 48 -34.5 76t-94.5 28q-24 0 -49 -2l59 158h119l-41 -102q182 -30 182 -172q0 -83 -57.5 -137t-146.5 -54q-74 0 -166 49v88z" />
<glyph unicode="&#xb9;" horiz-adv-x="739" d="M160 1462v82q86 1 130 32.5t58 100.5h98v-803h-139v588h-147z" />
<glyph unicode="&#xba;" d="M227 1073q0 135 80 222t205 87t205 -87t80 -222q0 -138 -80.5 -224.5t-208.5 -86.5q-122 0 -201.5 88t-79.5 223zM236 567v95h552v-95h-552zM362 1073q0 -91 41 -148t107 -57q69 0 110.5 55.5t41.5 149.5q0 90 -42 146.5t-108 56.5q-67 0 -108.5 -56t-41.5 -147z" />
<glyph unicode="&#xbb;" horiz-adv-x="897" d="M131 0l172 500l-172 475h164l205 -475l-205 -500h-164zM461 0l172 500l-172 475h164l204 -475l-204 -500h-164z" />
<glyph unicode="&#xbc;" horiz-adv-x="1744" d="M160 1120v82q85 2 130 33t58 100h98v-803h-139v588h-147zM403 0l775 1331h165l-774 -1331h-166zM1061 176v103l330 524h149v-516h148v-111h-146v-184h-139v184h-342zM1198 287h211v350z" />
<glyph unicode="&#xbd;" horiz-adv-x="1744" d="M160 1120v82q85 2 130 33t58 100h98v-803h-139v588h-147zM403 0l775 1331h165l-774 -1331h-166zM1118 0v106q14 14 103 117q175 200 224.5 268.5t49.5 112.5q0 40 -32 66t-81 26q-124 0 -133 -133h-121q0 120 68.5 186t192.5 66q113 0 180 -57t67 -152q0 -49 -25 -98 t-91 -130.5t-220 -254.5h345v-123h-527z" />
<glyph unicode="&#xbe;" horiz-adv-x="1744" d="M84 784h125q0 -66 38.5 -100.5t110.5 -34.5q69 0 107.5 34.5t38.5 94.5q0 67 -47 98t-150 31q-19 0 -33 -2v115q16 -2 37 -2q84 0 129 31t45 88q0 46 -31.5 73t-84.5 27q-114 0 -129 -113h-121q3 109 71.5 169.5t188.5 60.5q111 0 178.5 -56.5t67.5 -150.5 q0 -124 -121 -174q139 -48 139 -193q0 -110 -77.5 -179t-203.5 -69q-135 0 -207 65.5t-71 186.5zM406 0l774 1331h166l-775 -1331h-165zM1063 176v103l330 524h149v-516h148v-111h-146v-184h-139v184h-342zM1200 287h211v350z" />
<glyph unicode="&#xbf;" horiz-adv-x="849" d="M84 -100q0 83 32.5 142.5t137.5 168.5q79 84 97 125t18 141q0 35 -2 60h190v-23q1 -98 -1 -142.5t-18.5 -91t-39 -75t-76.5 -86.5q-76 -80 -99.5 -120t-23.5 -89q0 -60 38.5 -95.5t104.5 -35.5q156 0 168 180h164q-3 -90 -20 -145.5t-54 -100.5q-99 -114 -284 -114 q-154 0 -243 81t-89 220zM322 834q0 57 41 97t98 40t98 -40t41 -97t-40.5 -97.5t-100.5 -40.5q-57 0 -97 40.5t-40 97.5z" />
<glyph unicode="&#xc0;" horiz-adv-x="1198" d="M31 0l465 1370h204l467 -1370h-219l-100 319h-498l-102 -319h-217zM166 1794h262l313 -309h-194zM406 502h387l-195 614z" />
<glyph unicode="&#xc1;" horiz-adv-x="1198" d="M31 0l465 1370h204l467 -1370h-219l-100 319h-498l-102 -319h-217zM406 502h387l-195 614zM457 1485l313 309h262l-381 -309h-194z" />
<glyph unicode="&#xc2;" horiz-adv-x="1198" d="M31 0l465 1370h204l467 -1370h-219l-100 319h-498l-102 -319h-217zM231 1499l275 281h186l275 -281h-195l-172 170l-172 -170h-197zM406 502h387l-195 614z" />
<glyph unicode="&#xc3;" horiz-adv-x="1198" d="M31 0l465 1370h204l467 -1370h-219l-100 319h-498l-102 -319h-217zM262 1540q29 109 78 159t125 50q57 0 147 -41q97 -45 136 -45q35 0 60.5 24t45.5 76l96 -30q-20 -102 -72 -159.5t-124 -57.5q-62 0 -152 38q-110 46 -124 47q-5 1 -15 1q-35 0 -60 -24.5t-36 -68.5z M406 502h387l-195 614z" />
<glyph unicode="&#xc4;" horiz-adv-x="1198" d="M31 0l465 1370h204l467 -1370h-219l-100 319h-498l-102 -319h-217zM279 1638q0 57 39 96.5t96 39.5q55 0 94 -40t39 -94q0 -57 -38.5 -96t-94.5 -39q-57 0 -96 38.5t-39 94.5zM406 502h387l-195 614zM651 1638q0 57 39 96.5t96 39.5q55 0 94.5 -40t39.5 -94 q0 -57 -39 -96t-95 -39q-57 0 -96 38.5t-39 94.5z" />
<glyph unicode="&#xc5;" horiz-adv-x="1198" d="M31 0l465 1370h204l467 -1370h-219l-100 319h-498l-102 -319h-217zM403 1657q0 82 58 139t141 57q79 0 136 -57.5t57 -138.5t-57.5 -139t-137.5 -58q-82 0 -139.5 57.5t-57.5 139.5zM406 502h387l-195 614zM500 1657q0 -41 29.5 -71t70.5 -30q40 0 69 30t29 71t-29 70.5 t-69 29.5q-41 0 -70.5 -29.5t-29.5 -70.5z" />
<glyph unicode="&#xc6;" horiz-adv-x="1814" d="M35 0l799 1366h899v-182h-582v-387h532v-183h-532v-432h594v-182h-809v319h-487l-185 -319h-229zM553 502h383v672z" />
<glyph unicode="&#xc7;" horiz-adv-x="1228" d="M88 682q0 187 55.5 334t161.5 239q74 65 170.5 100.5t198.5 35.5q203 0 324.5 -115t140.5 -324h-187q-50 254 -282 254q-166 0 -263.5 -141.5t-97.5 -384.5q0 -239 98 -379.5t265 -140.5q130 0 205 83t90 244h192q-11 -239 -133 -373.5t-334 -138.5l-33 -94 q102 -17 154.5 -68t52.5 -132q0 -92 -66 -154t-165 -62q-44 0 -84 12t-102 42v102q88 -39 135 -39q55 0 88 32t33 85q0 55 -39 87t-105 32q-13 0 -57 -6l59 176q-110 14 -231 102q-119 89 -181.5 241t-62.5 351z" />
<glyph unicode="&#xc8;" horiz-adv-x="1064" d="M164 0v1366h809v-182h-598v-385h549v-183h-549v-434h614v-182h-825zM172 1794h262l314 -309h-195z" />
<glyph unicode="&#xc9;" horiz-adv-x="1064" d="M170 0v1366h809v-182h-598v-385h549v-183h-549v-434h614v-182h-825zM395 1485l314 309h262l-381 -309h-195z" />
<glyph unicode="&#xca;" horiz-adv-x="1064" d="M170 0v1366h809v-182h-598v-385h549v-183h-549v-434h614v-182h-825zM209 1499l274 281h185l274 -281h-192l-175 170l-172 -170h-194z" />
<glyph unicode="&#xcb;" horiz-adv-x="1064" d="M170 0v1366h809v-182h-598v-385h549v-183h-549v-434h614v-182h-825zM254 1638q0 57 39 96.5t96 39.5q55 0 94 -39t39 -95q0 -57 -38.5 -96t-94.5 -39q-57 0 -96 38.5t-39 94.5zM629 1638q0 57 39 96.5t96 39.5q55 0 94 -39t39 -95q0 -57 -38.5 -96t-94.5 -39 q-57 0 -96 38.5t-39 94.5z" />
<glyph unicode="&#xcc;" horiz-adv-x="550" d="M-98 1794h248l258 -309h-181zM168 0v1366h213v-1366h-213z" />
<glyph unicode="&#xcd;" horiz-adv-x="550" d="M141 1485l258 309h248l-325 -309h-181zM168 0v1366h213v-1366h-213z" />
<glyph unicode="&#xce;" horiz-adv-x="550" d="M-43 1499l225 281h187l227 -281h-188l-132 170l-131 -170h-188zM170 0v1366h213v-1366h-213z" />
<glyph unicode="&#xcf;" horiz-adv-x="550" d="M-16 1638q0 54 38 91.5t93 37.5q53 0 90 -37.5t37 -91.5t-37.5 -91.5t-91.5 -37.5t-91.5 37.5t-37.5 91.5zM170 0v1366h213v-1366h-213zM311 1638q0 54 38 91.5t93 37.5q53 0 90 -37.5t37 -91.5t-37.5 -91.5t-91.5 -37.5t-91.5 37.5t-37.5 91.5z" />
<glyph unicode="&#xd0;" horiz-adv-x="1304" d="M47 629v170h123v567h276q174 0 274.5 -16.5t178.5 -57.5q146 -78 232 -242t86 -366q0 -203 -82 -364.5t-224 -239.5q-86 -49 -182 -64.5t-311 -15.5h-248v629h-123zM381 182h111q133 0 199.5 13.5t125.5 52.5q86 57 133 171t47 265q0 153 -50.5 267.5t-143.5 172.5 q-61 38 -128 49t-235 11h-59v-385h297v-170h-297v-447z" />
<glyph unicode="&#xd1;" horiz-adv-x="1368" d="M170 0v1366h227l600 -1044v1044h201v-1366h-219l-608 1042v-1042h-201zM352 1540q29 108 78.5 158.5t124.5 50.5q57 0 147 -41q97 -45 136 -45q35 0 60.5 24t45.5 76l96 -30q-20 -102 -72 -159.5t-124 -57.5q-65 0 -152 38q-12 5 -33 14q-59 25 -72.5 29.5t-31.5 4.5 q-37 0 -63 -25t-35 -68z" />
<glyph unicode="&#xd2;" horiz-adv-x="1351" d="M88 684q0 384 229 578q152 129 359 129q265 0 427.5 -194t162.5 -511q0 -383 -230 -582q-78 -67 -165.5 -98t-200.5 -31q-203 0 -353 129q-229 195 -229 580zM283 1794h262l313 -309h-194zM309 684q0 -243 98 -384.5t265 -141.5q175 0 273.5 139.5t98.5 388.5 q0 243 -98 382.5t-270 139.5q-170 0 -268.5 -140t-98.5 -384z" />
<glyph unicode="&#xd3;" horiz-adv-x="1351" d="M88 684q0 384 229 578q152 129 359 129q265 0 427.5 -194t162.5 -511q0 -383 -230 -582q-78 -67 -165.5 -98t-200.5 -31q-203 0 -353 129q-229 195 -229 580zM309 684q0 -243 98 -384.5t265 -141.5q175 0 273.5 139.5t98.5 388.5q0 243 -98 382.5t-270 139.5 q-170 0 -268.5 -140t-98.5 -384zM496 1485l313 309h262l-381 -309h-194z" />
<glyph unicode="&#xd4;" horiz-adv-x="1351" d="M88 684q0 384 229 578q152 129 359 129q265 0 427.5 -194t162.5 -511q0 -383 -230 -582q-78 -67 -165.5 -98t-200.5 -31q-203 0 -353 129q-229 195 -229 580zM309 684q0 -243 98 -384.5t265 -141.5q175 0 273.5 139.5t98.5 388.5q0 243 -98 382.5t-270 139.5 q-170 0 -268.5 -140t-98.5 -384zM309 1499l275 281h184l274 -281h-192l-174 170l-172 -170h-195z" />
<glyph unicode="&#xd5;" horiz-adv-x="1351" d="M88 684q0 384 229 578q152 129 359 129q265 0 427.5 -194t162.5 -511q0 -383 -230 -582q-78 -67 -165.5 -98t-200.5 -31q-203 0 -353 129q-229 195 -229 580zM309 684q0 -243 98 -384.5t265 -141.5q175 0 273.5 139.5t98.5 388.5q0 243 -98 382.5t-270 139.5 q-170 0 -268.5 -140t-98.5 -384zM342 1540q29 108 78.5 158.5t124.5 50.5q57 0 147 -41q97 -45 137 -45q66 0 105 100l96 -30q-19 -100 -71.5 -158.5t-124.5 -58.5q-62 0 -152 38q-14 6 -36 15q-58 24 -71.5 28.5t-29.5 4.5q-36 0 -62 -25t-37 -68z" />
<glyph unicode="&#xd6;" horiz-adv-x="1351" d="M88 684q0 384 229 578q152 129 359 129q265 0 427.5 -194t162.5 -511q0 -383 -230 -582q-78 -67 -165.5 -98t-200.5 -31q-203 0 -353 129q-229 195 -229 580zM309 684q0 -243 98 -384.5t265 -141.5q175 0 273.5 139.5t98.5 388.5q0 243 -98 382.5t-270 139.5 q-170 0 -268.5 -140t-98.5 -384zM354 1638q0 57 39 96.5t96 39.5q55 0 94.5 -40t39.5 -94q0 -57 -39 -96t-95 -39q-57 0 -96 38.5t-39 94.5zM729 1638q0 57 39 96.5t96 39.5q55 0 94 -39t39 -95q0 -57 -38.5 -96t-94.5 -39q-57 0 -96 38.5t-39 94.5z" />
<glyph unicode="&#xd7;" horiz-adv-x="1132" d="M162 387l297 297l-291 293l108 108l291 -292l293 292l111 -110l-293 -291l291 -293l-109 -108l-291 290l-297 -297z" />
<glyph unicode="&#xd8;" horiz-adv-x="1351" d="M76 -14l153 211q-76 110 -108.5 222t-32.5 265q0 402 248 594q143 113 340 113t354 -121l84 108h164l-156 -204q144 -187 144 -496q0 -205 -74.5 -365.5t-208 -250t-303.5 -89.5q-200 0 -361 127l-83 -114h-160zM309 676q0 -85 12 -146t46 -147l540 733q-97 94 -231 94 q-168 0 -267.5 -144.5t-99.5 -389.5zM442 258q59 -56 113 -79t127 -23q166 0 264 144.5t98 387.5q0 88 -12.5 154t-46.5 155z" />
<glyph unicode="&#xd9;" horiz-adv-x="1333" d="M154 569v797h211v-793q0 -124 6 -175t26 -93q31 -69 102.5 -107t168.5 -38q105 0 178.5 45t101.5 125q14 39 18.5 87t4.5 156v793h211v-797q0 -151 -8.5 -216t-34.5 -124q-56 -120 -180 -187t-291 -67t-291 67t-180 187q-26 61 -34.5 125t-8.5 215zM283 1794h260 l315 -309h-194z" />
<glyph unicode="&#xda;" horiz-adv-x="1333" d="M154 569v797h211v-793q0 -124 6 -175t26 -93q31 -69 102.5 -107t168.5 -38q105 0 178.5 45t101.5 125q14 39 18.5 87t4.5 156v793h211v-797q0 -151 -8.5 -216t-34.5 -124q-56 -120 -180 -187t-291 -67t-291 67t-180 187q-26 61 -34.5 125t-8.5 215zM479 1485l314 309h262 l-381 -309h-195z" />
<glyph unicode="&#xdb;" horiz-adv-x="1333" d="M154 569v797h211v-793q0 -124 6 -175t26 -93q31 -69 102.5 -107t168.5 -38q105 0 178.5 45t101.5 125q14 39 18.5 87t4.5 156v793h211v-797q0 -151 -8.5 -216t-34.5 -124q-56 -120 -180 -187t-291 -67t-291 67t-180 187q-26 61 -34.5 125t-8.5 215zM301 1499l274 281h185 l274 -281h-194l-172 170l-172 -170h-195z" />
<glyph unicode="&#xdc;" horiz-adv-x="1333" d="M154 569v797h211v-793q0 -124 6 -175t26 -93q31 -69 102.5 -107t168.5 -38q105 0 178.5 45t101.5 125q14 39 18.5 87t4.5 156v793h211v-797q0 -151 -8.5 -216t-34.5 -124q-56 -120 -180 -187t-291 -67t-291 67t-180 187q-26 61 -34.5 125t-8.5 215zM346 1638 q0 57 39 96.5t96 39.5q55 0 94 -39t39 -95q0 -57 -38.5 -96t-94.5 -39q-57 0 -96 38.5t-39 94.5zM719 1638q0 57 39.5 96.5t97.5 39.5q55 0 94 -40t39 -94q0 -57 -39.5 -96t-95.5 -39t-95.5 39t-39.5 94z" />
<glyph unicode="&#xdd;" horiz-adv-x="1103" d="M10 1366h238l305 -588l303 588h236l-437 -811l2 -555h-213l2 555zM371 1485l315 309h260l-381 -309h-194z" />
<glyph unicode="&#xde;" horiz-adv-x="1120" d="M170 0v1366h211v-160h63q152 0 234 -8.5t149 -30.5q115 -38 181.5 -141t66.5 -242q0 -136 -64.5 -236.5t-176.5 -137.5q-63 -22 -139 -29.5t-224 -7.5h-90v-373h-211zM381 555h90q107 0 154 4t90 16q66 19 103.5 75t37.5 134q0 73 -30.5 127.5t-84.5 79.5 q-42 20 -97 26.5t-175 6.5h-88v-469z" />
<glyph unicode="&#xdf;" horiz-adv-x="1077" d="M127 0v862q0 172 9.5 237t41.5 122q46 78 135 120.5t205 42.5q169 0 275 -92.5t106 -240.5q0 -204 -209 -277q307 -70 307 -385q0 -175 -100.5 -289t-255.5 -114q-81 0 -158 39v178q63 -39 133 -39q80 0 127.5 59t47.5 158q0 209 -195 274q-68 21 -131 21q-13 0 -29 2 v174q14 -2 41 -2q103 0 162 49.5t59 136.5q0 83 -49.5 133t-132.5 50q-129 0 -168 -103q-13 -35 -16.5 -75.5t-3.5 -159.5v-881h-201z" />
<glyph unicode="&#xe0;" horiz-adv-x="1013" d="M90 256q0 101 57 175.5t166 115.5q65 25 130 40.5t235 45.5v26q0 94 -39 133t-131 39q-164 0 -191 -133h-194q9 73 32 120.5t66 86.5q111 90 299 90q123 0 207 -39.5t115 -111.5q18 -40 24 -87.5t6 -142.5v-378q0 -97 6.5 -148t24.5 -88h-186q-17 64 -17 121 q-80 -144 -278 -144q-154 0 -243 75t-89 204zM168 1415h260l238 -309h-156zM297 279q0 -63 46 -102.5t120 -39.5q62 0 111 27t75 76q29 54 29 178v76q-212 -32 -296.5 -79.5t-84.5 -135.5z" />
<glyph unicode="&#xe1;" horiz-adv-x="1013" d="M90 256q0 101 57 175.5t166 115.5q65 25 130 40.5t235 45.5v26q0 94 -39 133t-131 39q-164 0 -191 -133h-194q9 73 32 120.5t66 86.5q111 90 299 90q123 0 207 -39.5t115 -111.5q18 -40 24 -87.5t6 -142.5v-378q0 -97 6.5 -148t24.5 -88h-186q-17 64 -17 121 q-80 -144 -278 -144q-154 0 -243 75t-89 204zM297 279q0 -63 46 -102.5t120 -39.5q62 0 111 27t75 76q29 54 29 178v76q-212 -32 -296.5 -79.5t-84.5 -135.5zM356 1106l238 309h262l-342 -309h-158z" />
<glyph unicode="&#xe2;" horiz-adv-x="1013" d="M90 256q0 101 57 175.5t166 115.5q65 25 130 40.5t235 45.5v26q0 94 -39 133t-131 39q-164 0 -191 -133h-194q9 73 32 120.5t66 86.5q111 90 299 90q123 0 207 -39.5t115 -111.5q18 -40 24 -87.5t6 -142.5v-378q0 -97 6.5 -148t24.5 -88h-186q-17 64 -17 121 q-80 -144 -278 -144q-154 0 -243 75t-89 204zM174 1116l240 299h186l240 -299h-187l-145 184l-146 -184h-188zM297 279q0 -63 46 -102.5t120 -39.5q62 0 111 27t75 76q29 54 29 178v76q-212 -32 -296.5 -79.5t-84.5 -135.5z" />
<glyph unicode="&#xe3;" horiz-adv-x="1013" d="M90 256q0 101 57 175.5t166 115.5q65 25 130 40.5t235 45.5v26q0 94 -39 133t-131 39q-164 0 -191 -133h-194q9 73 32 120.5t66 86.5q111 90 299 90q123 0 207 -39.5t115 -111.5q18 -40 24 -87.5t6 -142.5v-378q0 -97 6.5 -148t24.5 -88h-186q-17 64 -17 121 q-80 -144 -278 -144q-154 0 -243 75t-89 204zM197 1163q51 213 178 213q54 0 137 -41q92 -45 125 -45q57 0 94 101l90 -25q-19 -104 -65.5 -163.5t-110.5 -59.5q-49 0 -145 45q-93 43 -123 43q-60 0 -84 -94zM297 279q0 -63 46 -102.5t120 -39.5q62 0 111 27t75 76 q29 54 29 178v76q-212 -32 -296.5 -79.5t-84.5 -135.5z" />
<glyph unicode="&#xe4;" horiz-adv-x="1013" d="M90 256q0 101 57 175.5t166 115.5q65 25 130 40.5t235 45.5v26q0 94 -39 133t-131 39q-164 0 -191 -133h-194q9 73 32 120.5t66 86.5q111 90 299 90q123 0 207 -39.5t115 -111.5q18 -40 24 -87.5t6 -142.5v-378q0 -97 6.5 -148t24.5 -88h-186q-17 64 -17 121 q-80 -144 -278 -144q-154 0 -243 75t-89 204zM203 1266q0 52 36.5 88.5t88.5 36.5q51 0 87 -36t36 -87q0 -52 -36 -88.5t-87 -36.5q-52 0 -88.5 36t-36.5 87zM297 279q0 -63 46 -102.5t120 -39.5q62 0 111 27t75 76q29 54 29 178v76q-212 -32 -296.5 -79.5t-84.5 -135.5z M555 1266q0 53 36.5 89t90.5 36q51 0 87 -36t36 -87q0 -52 -36.5 -88.5t-88.5 -36.5q-51 0 -88 36t-37 87z" />
<glyph unicode="&#xe5;" horiz-adv-x="1013" d="M90 256q0 101 57 175.5t166 115.5q65 25 130 40.5t235 45.5v26q0 94 -39 133t-131 39q-164 0 -191 -133h-194q9 73 32 120.5t66 86.5q111 90 299 90q123 0 207 -39.5t115 -111.5q18 -40 24 -87.5t6 -142.5v-378q0 -97 6.5 -148t24.5 -88h-186q-17 64 -17 121 q-80 -144 -278 -144q-154 0 -243 75t-89 204zM297 279q0 -63 46 -102.5t120 -39.5q62 0 111 27t75 76q29 54 29 178v76q-212 -32 -296.5 -79.5t-84.5 -135.5zM311 1280q0 82 58 139.5t141 57.5q79 0 137 -58.5t58 -138.5q0 -82 -57.5 -139.5t-139.5 -57.5t-139.5 57.5 t-57.5 139.5zM408 1280q0 -41 29.5 -70.5t70.5 -29.5t70.5 29.5t29.5 70.5t-29 70.5t-69 29.5q-43 0 -72.5 -29.5t-29.5 -70.5z" />
<glyph unicode="&#xe6;" horiz-adv-x="1628" d="M90 246q0 163 150.5 253t427.5 95v53q0 103 -37 146t-125 43q-153 0 -191 -154h-194q17 152 120 234.5t275 82.5q116 0 187 -33.5t118 -111.5q66 77 138 111t167 34q196 0 310 -141.5t114 -386.5v-29h-678q1 -144 73 -224.5t198 -80.5q75 0 125 31t82 98l182 -14 q-31 -128 -134.5 -203.5t-250.5 -75.5q-127 0 -225.5 53.5t-155.5 153.5q-92 -207 -340 -207q-152 0 -244 75t-92 198zM297 260q0 -58 42.5 -93.5t113.5 -35.5q215 0 215 275v38h-23q-166 0 -257 -48t-91 -136zM883 592h452q-17 126 -70 187t-147 61t-153.5 -63t-81.5 -185z " />
<glyph unicode="&#xe7;" horiz-adv-x="987" d="M80 483q0 235 121 375.5t323 140.5q163 0 260 -89.5t117 -258.5h-196q-17 97 -61 141t-124 44q-107 0 -170 -95.5t-63 -257.5q0 -163 62.5 -254.5t172.5 -91.5q86 0 131.5 48.5t59.5 154.5h196q-10 -169 -117 -269t-274 -98l-26 -75q182 -30 182 -172q0 -83 -58 -137 t-147 -54q-74 0 -166 49v88q53 -22 75 -28t48 -6q49 0 77.5 28t28.5 74q0 48 -34.5 76t-94.5 28q-24 0 -49 -2l56 146q-68 19 -107.5 40.5t-79.5 61.5q-143 146 -143 393z" />
<glyph unicode="&#xe8;" horiz-adv-x="1026" d="M80 475q0 236 123 380t325 144q192 0 306 -139t114 -375q0 -25 -2 -43h-663q6 -148 72 -225.5t186 -77.5q74 0 123 30.5t81 96.5l181 -12q-40 -135 -141 -208t-250 -73q-206 0 -330.5 137.5t-124.5 364.5zM184 1415h260l240 -309h-158zM289 592h452q-27 246 -219 246 q-94 0 -151 -60.5t-82 -185.5z" />
<glyph unicode="&#xe9;" horiz-adv-x="1026" d="M80 475q0 236 123 380t325 144q192 0 306 -139t114 -375q0 -25 -2 -43h-663q6 -148 72 -225.5t186 -77.5q74 0 123 30.5t81 96.5l181 -12q-40 -135 -141 -208t-250 -73q-206 0 -330.5 137.5t-124.5 364.5zM289 592h452q-27 246 -219 246q-94 0 -151 -60.5t-82 -185.5z M385 1106l238 309h262l-342 -309h-158z" />
<glyph unicode="&#xea;" horiz-adv-x="1026" d="M80 475q0 236 123 380t325 144q192 0 306 -139t114 -375q0 -25 -2 -43h-663q6 -148 72 -225.5t186 -77.5q74 0 123 30.5t81 96.5l181 -12q-40 -135 -141 -208t-250 -73q-206 0 -330.5 137.5t-124.5 364.5zM201 1116l239 299h187l239 -299h-186l-145 184l-146 -184h-188z M289 592h452q-27 246 -219 246q-94 0 -151 -60.5t-82 -185.5z" />
<glyph unicode="&#xeb;" horiz-adv-x="1026" d="M80 475q0 236 123 380t325 144q192 0 306 -139t114 -375q0 -25 -2 -43h-663q6 -148 72 -225.5t186 -77.5q74 0 123 30.5t81 96.5l181 -12q-40 -135 -141 -208t-250 -73q-206 0 -330.5 137.5t-124.5 364.5zM233 1266q0 52 36.5 88.5t88.5 36.5q51 0 87 -36t36 -87 q0 -52 -36 -88.5t-87 -36.5q-52 0 -88.5 36t-36.5 87zM289 592h452q-27 246 -219 246q-94 0 -151 -60.5t-82 -185.5zM586 1266q0 53 36.5 89t90.5 36q51 0 87 -36t36 -87q0 -52 -36 -88.5t-89 -36.5q-51 0 -88 36t-37 87z" />
<glyph unicode="&#xec;" horiz-adv-x="495" d="M-59 1415h241l183 -309h-150zM145 0v973h205v-973h-205z" />
<glyph unicode="&#xed;" horiz-adv-x="495" d="M131 1106l184 309h240l-274 -309h-150zM145 0v973h205v-973h-205z" />
<glyph unicode="&#xee;" horiz-adv-x="495" d="M-31 1116l187 299h184l186 -299h-174l-104 184l-105 -184h-174zM145 0v973h205v-973h-205z" />
<glyph unicode="&#xef;" horiz-adv-x="495" d="M-27 1268q0 51 35.5 86t87.5 35q49 0 84 -35.5t35 -85.5q0 -51 -35 -86t-86 -35t-86 35t-35 86zM145 0v973h205v-973h-205zM283 1268q0 51 35.5 86t87.5 35q49 0 83.5 -35.5t34.5 -85.5q0 -51 -35 -86t-86 -35q-50 0 -85 35t-35 86z" />
<glyph unicode="&#xf0;" horiz-adv-x="1067" d="M80 483q0 217 119.5 359.5t300.5 142.5q52 0 121 -29l-127 164l-142 -76l-71 91l147 84l-86 104l111 70l102 -107l152 86l69 -96l-149 -82q219 -250 289.5 -386t70.5 -310q0 -236 -122.5 -380.5t-323.5 -144.5q-203 0 -332 143t-129 367zM287 485q0 -153 69.5 -250.5 t178.5 -97.5q107 0 176 97t69 249q0 155 -67 251.5t-174 96.5q-114 0 -183 -94.5t-69 -251.5z" />
<glyph unicode="&#xf1;" horiz-adv-x="1079" d="M119 973h194q19 -53 19 -133q104 155 295 155q93 0 167 -40t109 -109q25 -47 32 -99.5t7 -187.5v-559h-201v526q0 148 -24 203q-42 88 -152 88q-59 0 -107 -27.5t-77 -78.5q-35 -60 -35 -193v-518h-201v633q0 172 -4 223.5t-22 116.5zM211 1163q51 213 178 213 q54 0 137 -41q92 -45 125 -45q29 0 51.5 24t42.5 77l91 -25q-19 -103 -66 -163t-111 -60q-54 0 -145 45q-93 43 -123 43q-59 0 -86 -94z" />
<glyph unicode="&#xf2;" horiz-adv-x="1067" d="M80 494q0 218 129 361.5t326 143.5q198 0 325 -145t127 -369t-127 -368t-325 -144q-201 0 -328 145.5t-127 375.5zM176 1415h262l238 -309h-156zM287 489q0 -160 67.5 -256t180.5 -96q109 0 177 96.5t68 251.5t-68 253t-177 98t-178.5 -97t-69.5 -250z" />
<glyph unicode="&#xf3;" horiz-adv-x="1067" d="M80 494q0 218 129 361.5t326 143.5q198 0 325 -145t127 -369t-127 -368t-325 -144q-201 0 -328 145.5t-127 375.5zM287 489q0 -160 67.5 -256t180.5 -96q109 0 177 96.5t68 251.5t-68 253t-177 98t-178.5 -97t-69.5 -250zM383 1106l240 309h260l-342 -309h-158z" />
<glyph unicode="&#xf4;" horiz-adv-x="1067" d="M80 494q0 218 129 361.5t326 143.5q198 0 325 -145t127 -369t-127 -368t-325 -144q-201 0 -328 145.5t-127 375.5zM201 1116l239 299h187l239 -299h-186l-145 184l-146 -184h-188zM287 489q0 -160 67.5 -256t180.5 -96q109 0 177 96.5t68 251.5t-68 253t-177 98 t-178.5 -97t-69.5 -250z" />
<glyph unicode="&#xf5;" horiz-adv-x="1067" d="M80 494q0 218 129 361.5t326 143.5q198 0 325 -145t127 -369t-127 -368t-325 -144q-201 0 -328 145.5t-127 375.5zM233 1163q49 213 179 213q48 0 137 -41q90 -45 125 -45q57 0 94 101l88 -25q-17 -103 -64.5 -163t-111.5 -60q-47 0 -143 45q-93 43 -123 43 q-61 0 -86 -94zM287 489q0 -160 67.5 -256t180.5 -96q109 0 177 96.5t68 251.5t-68 253t-177 98t-178.5 -97t-69.5 -250z" />
<glyph unicode="&#xf6;" horiz-adv-x="1067" d="M80 494q0 218 129 361.5t326 143.5q198 0 325 -145t127 -369t-127 -368t-325 -144q-201 0 -328 145.5t-127 375.5zM233 1266q0 52 36.5 88.5t88.5 36.5q51 0 87 -36t36 -87q0 -52 -36 -88.5t-87 -36.5q-52 0 -88.5 36t-36.5 87zM287 489q0 -160 67.5 -256t180.5 -96 q109 0 177 96.5t68 251.5t-68 253t-177 98t-178.5 -97t-69.5 -250zM586 1266q0 53 36.5 89t90.5 36q51 0 87 -36t36 -87q0 -52 -36 -88.5t-89 -36.5q-51 0 -88 36t-37 87z" />
<glyph unicode="&#xf7;" horiz-adv-x="1132" d="M102 608v154h928v-154h-928zM444 375q0 51 35.5 86t87.5 35q49 0 85 -36t36 -85q0 -51 -36 -86t-87 -35q-50 0 -85.5 35t-35.5 86zM444 991q0 51 35.5 86t87.5 35q49 0 85 -36t36 -85q0 -51 -36 -86t-87 -35q-50 0 -85.5 35t-35.5 86z" />
<glyph unicode="&#xf8;" horiz-adv-x="1067" d="M20 0l144 166l-8 14q-45 86 -61.5 149.5t-16.5 153.5q0 226 128 371t326 145q87 0 150.5 -23.5t142.5 -84.5l76 82h143l-143 -162q6 -18 6 -20l31 -56q22 -40 35.5 -109.5t13.5 -140.5q0 -223 -128.5 -367.5t-326.5 -144.5q-172 0 -290 109l-74 -82h-148zM285 481 q0 -80 24 -164l385 441q-24 34 -69 56t-97 22q-106 0 -174.5 -100t-68.5 -255zM367 211q42 -40 79 -57t86 -17q110 0 179 98.5t69 256.5q0 79 -28 167z" />
<glyph unicode="&#xf9;" horiz-adv-x="1081" d="M139 393v580h201v-574q0 -132 33 -176q48 -67 149 -67q122 0 178 100q35 60 35 182v535h201v-674q0 -159 3.5 -199.5t21.5 -99.5h-193q-17 49 -20 121q-50 -76 -112.5 -110t-154.5 -34q-96 0 -173 39t-120 109q-49 80 -49 268zM203 1415h260l239 -309h-157z" />
<glyph unicode="&#xfa;" horiz-adv-x="1081" d="M139 393v580h201v-574q0 -132 33 -176q48 -67 149 -67q122 0 178 100q35 60 35 182v535h201v-674q0 -159 3.5 -199.5t21.5 -99.5h-193q-17 49 -20 121q-50 -76 -112.5 -110t-154.5 -34q-96 0 -173 39t-120 109q-49 80 -49 268zM389 1106l238 309h260l-342 -309h-156z" />
<glyph unicode="&#xfb;" horiz-adv-x="1081" d="M139 393v580h201v-574q0 -132 33 -176q48 -67 149 -67q122 0 178 100q35 60 35 182v535h201v-674q0 -159 3.5 -199.5t21.5 -99.5h-193q-17 49 -20 121q-50 -76 -112.5 -110t-154.5 -34q-96 0 -173 39t-120 109q-49 80 -49 268zM205 1116l239 299h185l239 -299h-184 l-147 184l-146 -184h-186z" />
<glyph unicode="&#xfc;" horiz-adv-x="1081" d="M139 393v580h201v-574q0 -132 33 -176q48 -67 149 -67q122 0 178 100q35 60 35 182v535h201v-674q0 -159 3.5 -199.5t21.5 -99.5h-193q-17 49 -20 121q-50 -76 -112.5 -110t-154.5 -34q-96 0 -173 39t-120 109q-49 80 -49 268zM236 1266q0 53 36 89t88 36q51 0 87 -36 t36 -87q0 -52 -36 -88.5t-87 -36.5q-52 0 -88 36t-36 87zM590 1266q0 53 36.5 89t90.5 36q51 0 87 -36t36 -87q0 -52 -36 -88.5t-89 -36.5q-51 0 -88 36t-37 87z" />
<glyph unicode="&#xfd;" horiz-adv-x="964" d="M33 973h213l239 -774l246 774h211l-326 -926q-67 -191 -100 -254t-94 -112q-113 -91 -301 -91h-66v177q16 2 37 2h14q120 5 173 44.5t94 157.5zM338 1106l237 309h263l-342 -309h-158z" />
<glyph unicode="&#xfe;" horiz-adv-x="1083" d="M145 -403v1777h201v-530q50 80 111 115.5t149 35.5q178 0 288 -140t110 -366q0 -228 -108.5 -370t-281.5 -142q-89 0 -150 32.5t-118 109.5v-522h-201zM342 481q0 -152 63.5 -243t169.5 -91q94 0 146 64q76 102 76 274q0 156 -60 248t-162 92q-107 0 -170 -93t-63 -251z " />
<glyph unicode="&#xff;" horiz-adv-x="964" d="M33 973h213l239 -774l246 774h211l-326 -926q-67 -191 -100 -254t-94 -112q-113 -91 -301 -91h-66v177q16 2 37 2h14q120 5 173 44.5t94 157.5zM180 1266q0 52 36 88.5t89 36.5q51 0 87 -36t36 -87q0 -52 -36 -88.5t-87 -36.5q-52 0 -88.5 36t-36.5 87zM532 1266 q0 53 36.5 89t90.5 36q51 0 87 -36t36 -87q0 -52 -36 -88.5t-89 -36.5q-51 0 -88 36t-37 87z" />
<glyph unicode="&#x152;" horiz-adv-x="1939" d="M88 682q0 329 159.5 519t436.5 190q118 0 204.5 -37t158.5 -119v131h804v-182h-594v-385h545v-183h-545v-434h613v-182h-823v131q-75 -83 -160 -119.5t-205 -36.5q-274 0 -434 190.5t-160 516.5zM309 678q0 -243 98.5 -381.5t270.5 -138.5q170 0 269.5 140.5t99.5 383.5 q0 241 -98.5 383.5t-264.5 142.5q-178 0 -276.5 -139t-98.5 -391z" />
<glyph unicode="&#x153;" horiz-adv-x="1724" d="M80 487q0 226 128.5 369t330.5 143q228 0 338 -192q75 103 155.5 147.5t192.5 44.5q189 0 304.5 -139t115.5 -368v-54h-674q3 -144 72 -222.5t192 -78.5q157 0 211 129l180 -12q-38 -135 -139 -208t-250 -73q-230 0 -363 185q-71 -99 -149 -142t-186 -43q-201 0 -330 144 t-129 370zM287 485q0 -155 69 -251.5t179 -96.5q109 0 176 96.5t67 251.5q0 154 -67.5 252.5t-173.5 98.5q-112 0 -181 -97t-69 -254zM977 584h461q-10 126 -67.5 191t-156.5 65q-193 0 -237 -256z" />
<glyph unicode="&#x178;" horiz-adv-x="1103" d="M10 1366h238l307 -588l301 588h236l-437 -811l2 -555h-213l2 555zM229 1638q0 57 39.5 96.5t96.5 39.5q55 0 94 -40t39 -94q0 -57 -38.5 -96t-94.5 -39q-57 0 -96.5 38.5t-39.5 94.5zM602 1638q0 57 39 96.5t96 39.5q55 0 94 -40t39 -94q0 -57 -38.5 -96t-94.5 -39 q-57 0 -96 38.5t-39 94.5z" />
<glyph unicode="&#x2c6;" d="M180 1116l240 299h186l240 -299h-187l-145 184l-147 -184h-187z" />
<glyph unicode="&#x2dc;" d="M201 1161q49 215 178 215q48 0 137 -41q92 -45 125 -45q57 0 94 101l90 -25q-19 -104 -65.5 -163.5t-110.5 -59.5q-46 0 -145 45q-91 43 -123 43q-58 0 -86 -94z" />
<glyph unicode="&#x2000;" horiz-adv-x="926" />
<glyph unicode="&#x2001;" horiz-adv-x="1853" />
<glyph unicode="&#x2002;" horiz-adv-x="926" />
<glyph unicode="&#x2003;" horiz-adv-x="1853" />
<glyph unicode="&#x2004;" horiz-adv-x="617" />
<glyph unicode="&#x2005;" horiz-adv-x="463" />
<glyph unicode="&#x2006;" horiz-adv-x="308" />
<glyph unicode="&#x2007;" horiz-adv-x="308" />
<glyph unicode="&#x2008;" horiz-adv-x="231" />
<glyph unicode="&#x2009;" horiz-adv-x="370" />
<glyph unicode="&#x200a;" horiz-adv-x="102" />
<glyph unicode="&#x2010;" horiz-adv-x="546" d="M0 440v150h547v-150h-547z" />
<glyph unicode="&#x2011;" horiz-adv-x="546" d="M0 440v150h547v-150h-547z" />
<glyph unicode="&#x2012;" horiz-adv-x="546" d="M0 440v150h547v-150h-547z" />
<glyph unicode="&#x2013;" d="M115 440v150h792v-150h-792z" />
<glyph unicode="&#x2014;" horiz-adv-x="1241" d="M0 440v150h1241v-150h-1241z" />
<glyph unicode="&#x2018;" horiz-adv-x="428" d="M94 1079q0 143 144 312h120q-47 -47 -82 -116.5t-40 -121.5q61 -3 95 -33.5t34 -81.5q0 -54 -39 -90.5t-93 -36.5q-63 0 -101 46.5t-38 121.5z" />
<glyph unicode="&#x2019;" horiz-adv-x="442" d="M78 1264q0 54 37.5 90.5t93.5 36.5q63 0 101 -46.5t38 -121.5q0 -146 -143 -314h-121q49 52 83.5 119.5t39.5 118.5q-61 3 -95 33.5t-34 83.5z" />
<glyph unicode="&#x201a;" horiz-adv-x="442" d="M78 119q0 54 37.5 90.5t93.5 36.5q63 0 101 -46.5t38 -121.5q0 -146 -143 -314h-121q49 52 83.5 119.5t39.5 118.5q-61 3 -95 33.5t-34 83.5z" />
<glyph unicode="&#x201c;" horiz-adv-x="765" d="M94 1079q0 143 144 312h120q-47 -47 -82 -116.5t-40 -121.5q61 -3 95 -33.5t34 -81.5q0 -54 -39 -90.5t-93 -36.5q-63 0 -101 46.5t-38 121.5zM430 1079q0 140 143 312h121q-48 -50 -83 -118.5t-38 -119.5q61 -3 95 -33.5t34 -81.5q0 -54 -38.5 -90.5t-94.5 -36.5 q-62 0 -100.5 46.5t-38.5 121.5z" />
<glyph unicode="&#x201d;" horiz-adv-x="774" d="M63 1264q0 54 38 90.5t94 36.5q63 0 101 -46.5t38 -123.5q0 -139 -144 -312h-120q50 53 84.5 119.5t38.5 118.5q-62 3 -96 34t-34 83zM410 1264q0 54 37.5 90.5t93.5 36.5q63 0 101 -46.5t38 -121.5q0 -143 -143 -314h-119q48 53 82.5 120t38.5 118q-61 3 -95 33.5 t-34 83.5z" />
<glyph unicode="&#x201e;" horiz-adv-x="774" d="M63 119q0 54 38 90.5t94 36.5q63 0 101 -46.5t38 -123.5q0 -140 -144 -312h-120q50 53 84.5 119.5t38.5 118.5q-62 3 -96 34t-34 83zM410 119q0 54 38.5 90.5t92.5 36.5q63 0 101 -46.5t38 -121.5q0 -143 -143 -314h-119q48 53 82.5 120t38.5 118q-61 3 -95 33.5 t-34 83.5z" />
<glyph unicode="&#x2022;" horiz-adv-x="1366" d="M401 696q0 120 83.5 203.5t203.5 83.5q114 0 195.5 -84t81.5 -201q0 -120 -82 -203t-199 -83t-200 83.5t-83 200.5z" />
<glyph unicode="&#x2026;" horiz-adv-x="1441" d="M121 119q0 57 40.5 97t100.5 40q57 0 97 -40t40 -97t-40.5 -97t-98.5 -40t-98.5 40t-40.5 97zM582 119q0 57 40.5 97t100.5 40q55 0 96 -41t41 -96q0 -57 -41 -97t-98 -40q-58 0 -98.5 40t-40.5 97zM1044 119q0 57 41 97t101 40q56 0 96.5 -40t40.5 -97t-40.5 -97 t-98.5 -40t-99 40t-41 97z" />
<glyph unicode="&#x202f;" horiz-adv-x="370" />
<glyph unicode="&#x2039;" horiz-adv-x="561" d="M61 477l205 498h172l-172 -498l172 -477h-172z" />
<glyph unicode="&#x203a;" horiz-adv-x="561" d="M123 0l172 500l-172 475h172l205 -475l-205 -500h-172z" />
<glyph unicode="&#x205f;" horiz-adv-x="463" />
<glyph unicode="&#x20ac;" horiz-adv-x="1142" d="M31 481l55 127h111q-2 16 -2 43q0 53 4 82h-160l55 127h117q46 264 173 393t341 129q271 0 424 -182l-86 -190q-78 108 -154 154t-178 46q-180 0 -258 -161q-27 -51 -53 -189h575l-57 -127h-532q-3 -34 -3 -67q0 -28 3 -58h475l-58 -127h-401q19 -172 93.5 -249.5 t221.5 -77.5q135 0 225 57t168 192v-268q-94 -85 -193.5 -121.5t-236.5 -36.5q-142 0 -240.5 51t-164.5 158q-67 110 -86 295h-178z" />
<glyph unicode="&#x2122;" horiz-adv-x="1650" d="M14 1247v119h588v-119h-221v-700h-143v700h-224zM702 547v819h199l232 -659l233 659h199v-819h-133v643l-228 -643h-143l-227 641v-641h-132z" />
<glyph unicode="&#x25fc;" horiz-adv-x="972" d="M0 0v973h973v-973h-973z" />
</font>
</defs>
</svg>
